<svg width="250" height="50" viewBox="0 0 250 50" fill="none" xmlns="http://www.w3.org/2000/svg">
<rect width="250" height="50" rx="20" fill="#892CDC"/>
<path d="M109.713 30C109.554 30 109.423 29.9487 109.321 29.846C109.218 29.7433 109.167 29.6127 109.167 29.454V19.612C109.167 19.4533 109.218 19.3227 109.321 19.22C109.423 19.1173 109.554 19.066 109.713 19.066C109.871 19.066 110.002 19.1173 110.105 19.22C110.207 19.3227 110.259 19.4533 110.259 19.612V23.98H117.091V19.612C117.091 19.4533 117.142 19.3227 117.245 19.22C117.347 19.1173 117.478 19.066 117.637 19.066C117.795 19.066 117.926 19.1173 118.029 19.22C118.131 19.3227 118.183 19.4533 118.183 19.612V29.454C118.183 29.6127 118.131 29.7433 118.029 29.846C117.926 29.9487 117.795 30 117.637 30C117.478 30 117.347 29.9487 117.245 29.846C117.142 29.7433 117.091 29.6127 117.091 29.454V24.96H110.259V29.454C110.259 29.6127 110.207 29.7433 110.105 29.846C110.002 29.9487 109.871 30 109.713 30ZM124.325 30.07C123.578 30.07 122.911 29.902 122.323 29.566C121.735 29.23 121.273 28.768 120.937 28.18C120.601 27.592 120.433 26.9247 120.433 26.178C120.433 25.422 120.601 24.75 120.937 24.162C121.273 23.574 121.735 23.112 122.323 22.776C122.911 22.44 123.578 22.272 124.325 22.272C125.072 22.272 125.734 22.44 126.313 22.776C126.901 23.112 127.363 23.574 127.699 24.162C128.035 24.75 128.208 25.422 128.217 26.178C128.217 26.9247 128.044 27.592 127.699 28.18C127.363 28.768 126.901 29.23 126.313 29.566C125.734 29.902 125.072 30.07 124.325 30.07ZM124.325 29.09C124.866 29.09 125.352 28.964 125.781 28.712C126.21 28.46 126.546 28.1147 126.789 27.676C127.032 27.2373 127.153 26.738 127.153 26.178C127.153 25.618 127.032 25.1187 126.789 24.68C126.546 24.232 126.21 23.882 125.781 23.63C125.352 23.378 124.866 23.252 124.325 23.252C123.784 23.252 123.298 23.378 122.869 23.63C122.44 23.882 122.099 24.232 121.847 24.68C121.604 25.1187 121.483 25.618 121.483 26.178C121.483 26.738 121.604 27.2373 121.847 27.676C122.099 28.1147 122.44 28.46 122.869 28.712C123.298 28.964 123.784 29.09 124.325 29.09ZM132.988 30.07C132.437 30.07 131.891 29.9767 131.35 29.79C130.808 29.6033 130.37 29.3233 130.034 28.95C129.931 28.838 129.889 28.712 129.908 28.572C129.926 28.432 129.996 28.3107 130.118 28.208C130.248 28.1147 130.384 28.0773 130.524 28.096C130.664 28.1147 130.78 28.1753 130.874 28.278C131.098 28.5393 131.392 28.74 131.756 28.88C132.129 29.02 132.54 29.09 132.988 29.09C133.678 29.09 134.178 28.9733 134.486 28.74C134.794 28.4973 134.952 28.208 134.962 27.872C134.962 27.536 134.803 27.2607 134.486 27.046C134.168 26.822 133.646 26.6493 132.918 26.528C131.975 26.3787 131.284 26.1173 130.846 25.744C130.407 25.3707 130.188 24.9273 130.188 24.414C130.188 23.938 130.314 23.5413 130.566 23.224C130.818 22.9067 131.154 22.6687 131.574 22.51C131.994 22.3513 132.456 22.272 132.96 22.272C133.585 22.272 134.122 22.3793 134.57 22.594C135.027 22.8087 135.396 23.098 135.676 23.462C135.769 23.5833 135.806 23.7093 135.788 23.84C135.769 23.9707 135.694 24.078 135.564 24.162C135.452 24.2273 135.321 24.2507 135.172 24.232C135.032 24.204 134.91 24.134 134.808 24.022C134.35 23.4993 133.725 23.238 132.932 23.238C132.418 23.238 132.008 23.3453 131.7 23.56C131.392 23.7653 131.238 24.0267 131.238 24.344C131.238 24.6613 131.373 24.9227 131.644 25.128C131.924 25.3333 132.446 25.5013 133.212 25.632C133.912 25.744 134.462 25.912 134.864 26.136C135.274 26.3507 135.564 26.6073 135.732 26.906C135.909 27.1953 135.998 27.5127 135.998 27.858C135.998 28.2967 135.867 28.684 135.606 29.02C135.354 29.3467 134.999 29.6033 134.542 29.79C134.094 29.9767 133.576 30.07 132.988 30.07ZM140.857 30C140.362 30 139.919 29.8833 139.527 29.65C139.144 29.4167 138.841 29.0993 138.617 28.698C138.393 28.2873 138.281 27.8207 138.281 27.298V23.56H137.371C137.231 23.56 137.114 23.518 137.021 23.434C136.927 23.3407 136.881 23.2287 136.881 23.098C136.881 22.958 136.927 22.846 137.021 22.762C137.114 22.6687 137.231 22.622 137.371 22.622H138.281V20.452C138.281 20.2933 138.327 20.1627 138.421 20.06C138.523 19.9573 138.654 19.906 138.813 19.906C138.971 19.906 139.102 19.9573 139.205 20.06C139.307 20.1627 139.359 20.2933 139.359 20.452V22.622H140.941C141.081 22.622 141.197 22.6687 141.291 22.762C141.384 22.846 141.431 22.958 141.431 23.098C141.431 23.2287 141.384 23.3407 141.291 23.434C141.197 23.518 141.081 23.56 140.941 23.56H139.359V27.298C139.359 27.774 139.499 28.166 139.779 28.474C140.059 28.7727 140.418 28.922 140.857 28.922H141.235C141.384 28.922 141.505 28.9733 141.599 29.076C141.692 29.1787 141.739 29.3093 141.739 29.468C141.739 29.6267 141.683 29.7573 141.571 29.86C141.459 29.9533 141.319 30 141.151 30H140.857Z" fill="white"/>
</svg>
