<svg width="250" height="50" viewBox="0 0 250 50" fill="none" xmlns="http://www.w3.org/2000/svg">
<rect width="250" height="50" rx="20" fill="#892CDC"/>
<path d="M113.122 30.14C112.497 30.14 111.937 29.9953 111.442 29.706C110.947 29.4167 110.555 29.0247 110.266 28.53C109.977 28.0353 109.832 27.48 109.832 26.864C109.832 26.7053 109.883 26.5747 109.986 26.472C110.089 26.3693 110.219 26.318 110.378 26.318C110.537 26.318 110.667 26.3693 110.77 26.472C110.873 26.5747 110.924 26.7053 110.924 26.864C110.924 27.284 111.022 27.6667 111.218 28.012C111.414 28.348 111.675 28.614 112.002 28.81C112.338 29.006 112.711 29.104 113.122 29.104C113.533 29.104 113.901 29.006 114.228 28.81C114.564 28.6047 114.825 28.334 115.012 27.998C115.208 27.662 115.306 27.284 115.306 26.864V19.612C115.306 19.4533 115.357 19.3227 115.46 19.22C115.563 19.1173 115.693 19.066 115.852 19.066C116.011 19.066 116.141 19.1173 116.244 19.22C116.347 19.3227 116.398 19.4533 116.398 19.612V26.864C116.398 27.48 116.253 28.0353 115.964 28.53C115.675 29.0247 115.283 29.4167 114.788 29.706C114.293 29.9953 113.738 30.14 113.122 30.14ZM122.548 30.07C121.801 30.07 121.134 29.902 120.546 29.566C119.958 29.23 119.496 28.768 119.16 28.18C118.824 27.592 118.656 26.9247 118.656 26.178C118.656 25.422 118.824 24.75 119.16 24.162C119.496 23.574 119.958 23.112 120.546 22.776C121.134 22.44 121.801 22.272 122.548 22.272C123.294 22.272 123.957 22.44 124.536 22.776C125.124 23.112 125.586 23.574 125.922 24.162C126.258 24.75 126.43 25.422 126.44 26.178C126.44 26.9247 126.267 27.592 125.922 28.18C125.586 28.768 125.124 29.23 124.536 29.566C123.957 29.902 123.294 30.07 122.548 30.07ZM122.548 29.09C123.089 29.09 123.574 28.964 124.004 28.712C124.433 28.46 124.769 28.1147 125.012 27.676C125.254 27.2373 125.376 26.738 125.376 26.178C125.376 25.618 125.254 25.1187 125.012 24.68C124.769 24.232 124.433 23.882 124.004 23.63C123.574 23.378 123.089 23.252 122.548 23.252C122.006 23.252 121.521 23.378 121.092 23.63C120.662 23.882 120.322 24.232 120.07 24.68C119.827 25.1187 119.706 25.618 119.706 26.178C119.706 26.738 119.827 27.2373 120.07 27.676C120.322 28.1147 120.662 28.46 121.092 28.712C121.521 28.964 122.006 29.09 122.548 29.09ZM129.306 30C129.138 30 129.003 29.9533 128.9 29.86C128.807 29.7573 128.76 29.622 128.76 29.454V22.888C128.76 22.72 128.807 22.5893 128.9 22.496C129.003 22.3933 129.138 22.342 129.306 22.342C129.465 22.342 129.591 22.3933 129.684 22.496C129.787 22.5893 129.838 22.72 129.838 22.888V29.454C129.838 29.622 129.787 29.7573 129.684 29.86C129.591 29.9533 129.465 30 129.306 30ZM129.292 20.886C129.087 20.886 128.91 20.8113 128.76 20.662C128.611 20.5127 128.536 20.3307 128.536 20.116C128.536 19.8827 128.611 19.7007 128.76 19.57C128.919 19.43 129.101 19.36 129.306 19.36C129.502 19.36 129.675 19.43 129.824 19.57C129.983 19.7007 130.062 19.8827 130.062 20.116C130.062 20.3307 129.988 20.5127 129.838 20.662C129.689 20.8113 129.507 20.886 129.292 20.886ZM133.129 30C132.961 30 132.826 29.9533 132.723 29.86C132.63 29.7573 132.583 29.6267 132.583 29.468V22.888C132.583 22.72 132.63 22.5893 132.723 22.496C132.826 22.3933 132.961 22.342 133.129 22.342C133.288 22.342 133.414 22.3933 133.507 22.496C133.61 22.5893 133.661 22.72 133.661 22.888V23.364C133.96 23.0187 134.329 22.748 134.767 22.552C135.215 22.356 135.696 22.258 136.209 22.258C136.872 22.258 137.465 22.398 137.987 22.678C138.51 22.9487 138.921 23.35 139.219 23.882C139.527 24.414 139.681 25.0627 139.681 25.828V29.468C139.681 29.6173 139.63 29.7433 139.527 29.846C139.425 29.9487 139.299 30 139.149 30C138.991 30 138.86 29.9487 138.757 29.846C138.655 29.7433 138.603 29.6173 138.603 29.468V25.828C138.603 24.96 138.361 24.3207 137.875 23.91C137.399 23.49 136.807 23.28 136.097 23.28C135.64 23.28 135.225 23.3687 134.851 23.546C134.487 23.7233 134.198 23.966 133.983 24.274C133.769 24.582 133.661 24.932 133.661 25.324V29.468C133.661 29.6267 133.61 29.7573 133.507 29.86C133.414 29.9533 133.288 30 133.129 30Z" fill="white"/>
</svg>
