<svg width="250" height="50" viewBox="0 0 250 50" fill="none" xmlns="http://www.w3.org/2000/svg">
<rect width="250" height="50" rx="20" fill="#892CDC"/>
<path d="M117.286 19.088H116.362V26.312C116.362 27.516 115.886 28.412 114.57 28.412C113.702 28.412 113.142 27.978 112.918 27.054L111.994 27.222C112.274 28.44 113.128 29.252 114.57 29.252C117.132 29.252 117.286 27.278 117.286 26.088V19.088ZM119.405 25.766C119.405 27.74 120.819 29.168 122.807 29.168C124.795 29.168 126.209 27.74 126.209 25.766C126.209 23.792 124.795 22.364 122.807 22.364C120.819 22.364 119.405 23.792 119.405 25.766ZM120.245 25.766C120.245 24.31 121.225 23.12 122.807 23.12C124.389 23.12 125.369 24.31 125.369 25.766C125.369 27.222 124.389 28.412 122.807 28.412C121.225 28.412 120.245 27.222 120.245 25.766ZM128.222 29H129.062V22.532H128.222V29ZM128.012 19.97C128.012 20.32 128.292 20.6 128.642 20.6C128.992 20.6 129.272 20.32 129.272 19.97C129.272 19.62 128.992 19.34 128.642 19.34C128.292 19.34 128.012 19.62 128.012 19.97ZM131.445 29H132.285V25.766C132.285 23.988 133.279 23.12 134.525 23.12C135.855 23.12 136.149 24.142 136.149 25.192V29H136.989V25.15C136.989 23.736 136.541 22.364 134.525 22.364C133.475 22.364 132.649 22.952 132.313 23.666H132.271C132.243 23.54 132.229 23.008 132.215 22.532H131.375C131.375 22.868 131.445 23.876 131.445 24.352V29Z" fill="white"/>
</svg>
