<svg width="112" height="91" viewBox="0 0 112 91" fill="none" xmlns="http://www.w3.org/2000/svg">
<path d="M3.68462 71C3.48062 71 3.31262 70.934 3.18062 70.802C3.04862 70.67 2.98262 70.502 2.98262 70.298V57.644C2.98262 57.44 3.04862 57.272 3.18062 57.14C3.31262 57.008 3.48062 56.942 3.68462 56.942C3.90062 56.942 4.08062 57.026 4.22462 57.194L12.8286 68.498V57.644C12.8286 57.44 12.8946 57.272 13.0266 57.14C13.1586 57.008 13.3266 56.942 13.5306 56.942C13.7226 56.942 13.8846 57.008 14.0166 57.14C14.1606 57.272 14.2326 57.44 14.2326 57.644V70.298C14.2326 70.502 14.1606 70.67 14.0166 70.802C13.8846 70.934 13.7226 71 13.5306 71C13.3026 71 13.1286 70.922 13.0086 70.766L4.38662 59.462V70.298C4.38662 70.502 4.31462 70.67 4.17062 70.802C4.03862 70.934 3.87662 71 3.68462 71ZM18.5381 71C18.3341 71 18.1661 70.934 18.0341 70.802C17.9021 70.67 17.8361 70.502 17.8361 70.298V57.644C17.8361 57.44 17.9021 57.272 18.0341 57.14C18.1661 57.008 18.3341 56.942 18.5381 56.942H26.9801C27.1721 56.942 27.3341 57.008 27.4661 57.14C27.6101 57.26 27.6821 57.422 27.6821 57.626C27.6821 57.806 27.6101 57.962 27.4661 58.094C27.3341 58.226 27.1721 58.292 26.9801 58.292H19.2401V63.26H24.8741C25.0781 63.26 25.2461 63.326 25.3781 63.458C25.5101 63.59 25.5761 63.752 25.5761 63.944C25.5761 64.136 25.5101 64.298 25.3781 64.43C25.2461 64.562 25.0781 64.628 24.8741 64.628H19.2401V69.65H26.9801C27.1721 69.65 27.3341 69.716 27.4661 69.848C27.6101 69.98 27.6821 70.136 27.6821 70.316C27.6821 70.52 27.6101 70.688 27.4661 70.82C27.3341 70.94 27.1721 71 26.9801 71H18.5381ZM30.011 71C29.711 71 29.507 70.874 29.399 70.622C29.303 70.358 29.339 70.106 29.507 69.866L33.953 63.8L29.795 58.04C29.627 57.824 29.597 57.59 29.705 57.338C29.813 57.074 30.011 56.942 30.299 56.942C30.527 56.942 30.707 57.026 30.839 57.194L34.925 62.846L39.065 57.194C39.197 57.026 39.377 56.942 39.605 56.942C39.893 56.942 40.085 57.074 40.181 57.338C40.289 57.602 40.271 57.836 40.127 58.04L35.879 63.818L40.253 69.866C40.421 70.082 40.451 70.328 40.343 70.604C40.247 70.868 40.049 71 39.749 71C39.521 71 39.341 70.916 39.209 70.748L34.907 64.79L30.515 70.784C30.383 70.928 30.215 71 30.011 71ZM47.1116 71C46.9196 71 46.7516 70.934 46.6076 70.802C46.4756 70.658 46.4096 70.49 46.4096 70.298V58.22H42.1436C41.9516 58.22 41.7956 58.16 41.6756 58.04C41.5556 57.92 41.4956 57.77 41.4956 57.59C41.4956 57.398 41.5556 57.242 41.6756 57.122C41.7956 57.002 41.9516 56.942 42.1436 56.942H52.0976C52.2896 56.942 52.4456 57.002 52.5656 57.122C52.6856 57.242 52.7456 57.398 52.7456 57.59C52.7456 57.77 52.6856 57.92 52.5656 58.04C52.4456 58.16 52.2896 58.22 52.0976 58.22H47.8136V70.298C47.8136 70.49 47.7476 70.658 47.6156 70.802C47.4836 70.934 47.3156 71 47.1116 71ZM64.1799 71C63.9879 71 63.8199 70.934 63.6759 70.802C63.5439 70.658 63.4779 70.49 63.4779 70.298V58.22H59.2119C59.0199 58.22 58.8639 58.16 58.7439 58.04C58.6239 57.92 58.5639 57.77 58.5639 57.59C58.5639 57.398 58.6239 57.242 58.7439 57.122C58.8639 57.002 59.0199 56.942 59.2119 56.942H69.1659C69.3579 56.942 69.5139 57.002 69.6339 57.122C69.7539 57.242 69.8139 57.398 69.8139 57.59C69.8139 57.77 69.7539 57.92 69.6339 58.04C69.5139 58.16 69.3579 58.22 69.1659 58.22H64.8819V70.298C64.8819 70.49 64.8159 70.658 64.6839 70.802C64.5519 70.934 64.3839 71 64.1799 71ZM77.4869 71.288C76.3949 71.288 75.4229 71.078 74.5709 70.658C73.7309 70.238 73.0709 69.656 72.5909 68.912C72.1229 68.168 71.8889 67.316 71.8889 66.356V57.644C71.8889 57.44 71.9549 57.272 72.0869 57.14C72.2189 57.008 72.3869 56.942 72.5909 56.942C72.7949 56.942 72.9629 57.008 73.0949 57.14C73.2269 57.272 73.2929 57.44 73.2929 57.644V66.356C73.2929 67.064 73.4669 67.688 73.8149 68.228C74.1749 68.768 74.6729 69.194 75.3089 69.506C75.9449 69.806 76.6709 69.956 77.4869 69.956C78.2909 69.956 79.0049 69.806 79.6289 69.506C80.2529 69.194 80.7389 68.768 81.0869 68.228C81.4469 67.688 81.6269 67.064 81.6269 66.356V57.644C81.6269 57.44 81.6929 57.272 81.8249 57.14C81.9569 57.008 82.1249 56.942 82.3289 56.942C82.5449 56.942 82.7129 57.008 82.8329 57.14C82.9649 57.272 83.0309 57.44 83.0309 57.644V66.356C83.0309 67.316 82.7909 68.168 82.3109 68.912C81.8429 69.656 81.1889 70.238 80.3489 70.658C79.5209 71.078 78.5669 71.288 77.4869 71.288ZM87.3389 71C87.1349 71 86.9669 70.934 86.8349 70.802C86.7029 70.67 86.6369 70.502 86.6369 70.298V57.644C86.6369 57.44 86.7029 57.272 86.8349 57.14C86.9669 57.008 87.1349 56.942 87.3389 56.942H90.7049C91.5809 56.942 92.3609 57.128 93.0449 57.5C93.7289 57.86 94.2629 58.37 94.6469 59.03C95.0429 59.678 95.2409 60.428 95.2409 61.28C95.2409 62.216 94.9889 63.032 94.4849 63.728C93.9809 64.412 93.3089 64.898 92.4689 65.186L95.4209 69.92C95.6009 70.208 95.6309 70.46 95.5109 70.676C95.4029 70.892 95.1869 71 94.8629 71C94.7069 71 94.5809 70.97 94.4849 70.91C94.4009 70.85 94.3229 70.76 94.2509 70.64L91.0109 65.474C90.9149 65.486 90.8129 65.492 90.7049 65.492H88.0409V70.298C88.0409 70.502 87.9749 70.67 87.8429 70.802C87.7109 70.934 87.5429 71 87.3389 71ZM88.0409 64.142H90.7049C91.3169 64.142 91.8569 64.022 92.3249 63.782C92.8049 63.53 93.1829 63.188 93.4589 62.756C93.7349 62.324 93.8729 61.832 93.8729 61.28C93.8729 60.692 93.7349 60.176 93.4589 59.732C93.1829 59.276 92.8049 58.922 92.3249 58.67C91.8569 58.418 91.3169 58.292 90.7049 58.292H88.0409V64.142ZM98.4659 71C98.2619 71 98.0939 70.934 97.9619 70.802C97.8299 70.67 97.7639 70.502 97.7639 70.298V57.644C97.7639 57.44 97.8299 57.272 97.9619 57.14C98.0939 57.008 98.2619 56.942 98.4659 56.942C98.6819 56.942 98.8619 57.026 99.0059 57.194L107.61 68.498V57.644C107.61 57.44 107.676 57.272 107.808 57.14C107.94 57.008 108.108 56.942 108.312 56.942C108.504 56.942 108.666 57.008 108.798 57.14C108.942 57.272 109.014 57.44 109.014 57.644V70.298C109.014 70.502 108.942 70.67 108.798 70.802C108.666 70.934 108.504 71 108.312 71C108.084 71 107.91 70.922 107.79 70.766L99.1679 59.462V70.298C99.1679 70.502 99.0959 70.67 98.9519 70.802C98.8199 70.934 98.6579 71 98.4659 71Z" fill="white"/>
<path d="M45.9375 25.5L65.0625 25.5" stroke="#892CDC" stroke-width="5" stroke-linecap="round"/>
<path d="M58.6875 31.875L65.0625 25.5L58.6875 19.125" stroke="#892CDC" stroke-width="5" stroke-linecap="round"/>
<path fill-rule="evenodd" clip-rule="evenodd" d="M34.25 25.5C34.25 37.2361 43.7639 46.75 55.5 46.75C67.2361 46.75 76.75 37.2361 76.75 25.5C76.75 13.7639 67.2361 4.25 55.5 4.25C43.7639 4.25 34.25 13.7639 34.25 25.5Z" stroke="#892CDC" stroke-width="5"/>
</svg>
