<svg width="112" height="95" viewBox="0 0 112 95" fill="none" xmlns="http://www.w3.org/2000/svg">
<path d="M20.0761 74H21.2641V62.84H21.3001L29.0581 74H30.5881V61.256H29.4001V72.416H29.3641L21.6061 61.256H20.0761V74ZM40.3318 71.768C39.7918 72.668 38.6398 73.244 37.5418 73.244C35.0218 73.244 34.3918 71.012 34.3918 70.112H41.3758V69.356C41.3758 67.43 40.0258 65.468 37.4698 65.468C35.0398 65.468 33.3118 67.34 33.3118 69.824C33.3118 72.398 34.9858 74.216 37.5238 74.216C38.9998 74.216 40.2778 73.694 41.1238 72.434L40.3318 71.768ZM34.3918 69.14C34.3918 68.708 35.0578 66.44 37.4158 66.44C39.0178 66.44 40.2958 67.664 40.2958 69.14H34.3918ZM42.4498 74H43.7458L46.5898 70.238L49.4878 74H50.8918L47.3278 69.5L50.2618 65.684H48.9118L46.6258 68.834L44.3218 65.684H42.9358L45.9058 69.5L42.4498 74ZM56.5158 65.684H54.1398V63.29H53.0598V65.684H51.2598V66.656H53.0598V72.074C53.0598 73.262 53.6538 74.216 55.2018 74.216C55.6158 74.216 56.2098 74.072 56.6058 73.928L56.5158 72.956C56.1378 73.118 55.7058 73.244 55.2918 73.244C54.5718 73.244 54.1398 72.812 54.1398 72.074V66.656H56.5158V65.684ZM67.1857 65.684H64.8097V63.29H63.7297V65.684H61.9297V66.656H63.7297V72.074C63.7297 73.262 64.3237 74.216 65.8717 74.216C66.2857 74.216 66.8797 74.072 67.2757 73.928L67.1857 72.956C66.8077 73.118 66.3757 73.244 65.9617 73.244C65.2417 73.244 64.8097 72.812 64.8097 72.074V66.656H67.1857V65.684ZM76.1499 65.684H75.0699V69.842C75.0699 72.128 73.7919 73.244 72.1899 73.244C70.4799 73.244 70.1019 71.93 70.1019 70.58V65.684H69.0219V70.634C69.0219 72.452 69.5979 74.216 72.1899 74.216C73.5399 74.216 74.6019 73.46 75.0339 72.542H75.0879C75.1239 72.704 75.1419 73.388 75.1599 74H76.2399C76.2399 73.568 76.1499 72.272 76.1499 71.66V65.684ZM79.1138 74H80.1938V69.464C80.1938 67.844 81.0398 66.548 82.9118 66.548C83.0198 66.548 83.1638 66.566 83.3258 66.62L83.4518 65.558C83.2358 65.504 83.0378 65.468 82.8218 65.468C81.5798 65.468 80.7158 66.17 80.1758 67.142C80.1398 66.98 80.1218 66.296 80.1038 65.684H79.0238C79.0238 66.116 79.1138 67.412 79.1138 68.024V74ZM85.108 74H86.188V69.842C86.188 67.556 87.466 66.44 89.068 66.44C90.778 66.44 91.156 67.754 91.156 69.104V74H92.236V69.05C92.236 67.232 91.66 65.468 89.068 65.468C87.718 65.468 86.656 66.224 86.224 67.142H86.17C86.134 66.98 86.116 66.296 86.098 65.684H85.018C85.018 66.116 85.108 67.412 85.108 68.024V74Z" fill="white"/>
<path d="M45.9375 25.5L65.0625 25.5" stroke="#892CDC" stroke-linecap="round"/>
<path d="M58.6875 31.875L65.0625 25.5L58.6875 19.125" stroke="#892CDC" stroke-linecap="round"/>
<path fill-rule="evenodd" clip-rule="evenodd" d="M34.25 25.5C34.25 37.2361 43.7639 46.75 55.5 46.75C67.2361 46.75 76.75 37.2361 76.75 25.5C76.75 13.7639 67.2361 4.25 55.5 4.25C43.7639 4.25 34.25 13.7639 34.25 25.5Z" stroke="#892CDC"/>
</svg>
