<svg width="75" height="101" viewBox="0 0 75 101" fill="none" xmlns="http://www.w3.org/2000/svg">
<path d="M21.7335 81.18C20.6895 81.18 19.7295 81 18.8535 80.64C17.9775 80.28 17.2155 79.776 16.5675 79.128C15.9315 78.48 15.4335 77.718 15.0735 76.842C14.7255 75.966 14.5515 75.006 14.5515 73.962C14.5515 72.93 14.7255 71.976 15.0735 71.1C15.4335 70.224 15.9315 69.462 16.5675 68.814C17.2155 68.166 17.9775 67.662 18.8535 67.302C19.7295 66.942 20.6895 66.762 21.7335 66.762C22.7655 66.762 23.7195 66.942 24.5955 67.302C25.4715 67.662 26.2335 68.166 26.8815 68.814C27.5295 69.462 28.0275 70.224 28.3755 71.1C28.7355 71.976 28.9155 72.93 28.9155 73.962C28.9155 74.946 28.7535 75.864 28.4295 76.716C28.1055 77.556 27.6555 78.294 27.0795 78.93L27.9975 79.83C28.1295 79.974 28.1955 80.136 28.1955 80.316C28.1955 80.484 28.1295 80.64 27.9975 80.784C27.8535 80.928 27.6915 81 27.5115 81C27.3315 81 27.1695 80.928 27.0255 80.784L26.0715 79.83C25.4835 80.262 24.8175 80.598 24.0735 80.838C23.3415 81.066 22.5615 81.18 21.7335 81.18ZM21.7335 79.848C22.3695 79.848 22.9695 79.764 23.5335 79.596C24.0975 79.416 24.6135 79.164 25.0815 78.84L23.1375 76.914C22.9935 76.77 22.9215 76.608 22.9215 76.428C22.9215 76.248 22.9935 76.086 23.1375 75.942C23.2695 75.81 23.4255 75.744 23.6055 75.744C23.7855 75.744 23.9475 75.81 24.0915 75.942L26.0895 77.94C26.5455 77.424 26.8995 76.83 27.1515 76.158C27.4035 75.474 27.5295 74.742 27.5295 73.962C27.5295 73.134 27.3855 72.366 27.0975 71.658C26.8095 70.938 26.4015 70.314 25.8735 69.786C25.3575 69.246 24.7455 68.832 24.0375 68.544C23.3295 68.244 22.5615 68.094 21.7335 68.094C20.8935 68.094 20.1195 68.244 19.4115 68.544C18.7035 68.832 18.0855 69.246 17.5575 69.786C17.0415 70.314 16.6395 70.938 16.3515 71.658C16.0635 72.366 15.9195 73.134 15.9195 73.962C15.9195 74.802 16.0635 75.582 16.3515 76.302C16.6395 77.01 17.0415 77.634 17.5575 78.174C18.0855 78.702 18.7035 79.116 19.4115 79.416C20.1195 79.704 20.8935 79.848 21.7335 79.848ZM37.4097 81.288C36.3177 81.288 35.3457 81.078 34.4937 80.658C33.6537 80.238 32.9937 79.656 32.5137 78.912C32.0457 78.168 31.8117 77.316 31.8117 76.356V67.644C31.8117 67.44 31.8777 67.272 32.0097 67.14C32.1417 67.008 32.3097 66.942 32.5137 66.942C32.7177 66.942 32.8857 67.008 33.0177 67.14C33.1497 67.272 33.2157 67.44 33.2157 67.644V76.356C33.2157 77.064 33.3897 77.688 33.7377 78.228C34.0977 78.768 34.5957 79.194 35.2317 79.506C35.8677 79.806 36.5937 79.956 37.4097 79.956C38.2137 79.956 38.9277 79.806 39.5517 79.506C40.1757 79.194 40.6617 78.768 41.0097 78.228C41.3697 77.688 41.5497 77.064 41.5497 76.356V67.644C41.5497 67.44 41.6157 67.272 41.7477 67.14C41.8797 67.008 42.0477 66.942 42.2517 66.942C42.4677 66.942 42.6357 67.008 42.7557 67.14C42.8877 67.272 42.9537 67.44 42.9537 67.644V76.356C42.9537 77.316 42.7137 78.168 42.2337 78.912C41.7657 79.656 41.1117 80.238 40.2717 80.658C39.4437 81.078 38.4897 81.288 37.4097 81.288ZM47.2618 81C47.0578 81 46.8898 80.934 46.7578 80.802C46.6258 80.67 46.5598 80.502 46.5598 80.298V67.644C46.5598 67.44 46.6258 67.272 46.7578 67.14C46.8898 67.008 47.0578 66.942 47.2618 66.942C47.4658 66.942 47.6338 67.008 47.7658 67.14C47.8978 67.272 47.9638 67.44 47.9638 67.644V80.298C47.9638 80.502 47.8978 80.67 47.7658 80.802C47.6338 80.934 47.4658 81 47.2618 81ZM55.6555 81C55.4635 81 55.2955 80.934 55.1515 80.802C55.0195 80.658 54.9535 80.49 54.9535 80.298V68.22H50.6875C50.4955 68.22 50.3395 68.16 50.2195 68.04C50.0995 67.92 50.0395 67.77 50.0395 67.59C50.0395 67.398 50.0995 67.242 50.2195 67.122C50.3395 67.002 50.4955 66.942 50.6875 66.942H60.6415C60.8335 66.942 60.9895 67.002 61.1095 67.122C61.2295 67.242 61.2895 67.398 61.2895 67.59C61.2895 67.77 61.2295 67.92 61.1095 68.04C60.9895 68.16 60.8335 68.22 60.6415 68.22H56.3575V80.298C56.3575 80.49 56.2915 80.658 56.1595 80.802C56.0275 80.934 55.8595 81 55.6555 81Z" fill="white"/>
<path d="M46.0129 44.013L30.9869 28.987" stroke="#892CDC" stroke-width="5" stroke-linecap="round"/>
<path d="M30.9871 44.013L46.0131 28.987" stroke="#892CDC" stroke-width="5" stroke-linecap="round"/>
<path fill-rule="evenodd" clip-rule="evenodd" d="M23.474 51.526C31.7726 59.8247 45.2274 59.8247 53.526 51.526C61.8247 43.2274 61.8247 29.7726 53.526 21.474C45.2274 13.1753 31.7726 13.1753 23.474 21.474C15.1753 29.7726 15.1753 43.2274 23.474 51.526Z" stroke="#892CDC" stroke-width="5"/>
</svg>
