<svg width="75" height="106" viewBox="0 0 75 106" fill="none" xmlns="http://www.w3.org/2000/svg">
<path d="M34.468 83.92H30.49V83.884C32.47 83.128 33.676 80.698 33.676 78.466C33.676 74.776 31.156 71.932 27.214 71.932C23.272 71.932 20.752 74.776 20.752 78.466C20.752 82.39 23.902 85 27.448 85H34.468V83.92ZM21.94 78.466C21.94 75.37 23.902 73.012 27.214 73.012C30.526 73.012 32.488 75.37 32.488 78.466C32.488 81.292 30.688 83.92 27.412 83.92C24.208 83.92 21.94 81.454 21.94 78.466ZM43.3237 76.684H42.2437V80.842C42.2437 83.128 40.9657 84.244 39.3637 84.244C37.6537 84.244 37.2757 82.93 37.2757 81.58V76.684H36.1957V81.634C36.1957 83.452 36.7717 85.216 39.3637 85.216C40.7137 85.216 41.7757 84.46 42.2077 83.542H42.2617C42.2977 83.704 42.3157 84.388 42.3337 85H43.4137C43.4137 84.568 43.3237 83.272 43.3237 82.66V76.684ZM46.4677 85H47.5477V76.684H46.4677V85ZM46.1977 73.39C46.1977 73.84 46.5577 74.2 47.0077 74.2C47.4577 74.2 47.8177 73.84 47.8177 73.39C47.8177 72.94 47.4577 72.58 47.0077 72.58C46.5577 72.58 46.1977 72.94 46.1977 73.39ZM54.6799 76.684H52.3039V74.29H51.2239V76.684H49.4239V77.656H51.2239V83.074C51.2239 84.262 51.8179 85.216 53.3659 85.216C53.7799 85.216 54.3739 85.072 54.7699 84.928L54.6799 83.956C54.3019 84.118 53.8699 84.244 53.4559 84.244C52.7359 84.244 52.3039 83.812 52.3039 83.074V77.656H54.6799V76.684Z" fill="white"/>
<path d="M46.0129 44.013L30.9869 28.987" stroke="#892CDC" stroke-linecap="round"/>
<path d="M30.9871 44.013L46.0131 28.987" stroke="#892CDC" stroke-linecap="round"/>
<path fill-rule="evenodd" clip-rule="evenodd" d="M23.474 51.526C31.7726 59.8247 45.2274 59.8247 53.526 51.526C61.8247 43.2274 61.8247 29.7726 53.526 21.474C45.2274 13.1753 31.7726 13.1753 23.474 21.474C15.1753 29.7726 15.1753 43.2274 23.474 51.526Z" stroke="#892CDC"/>
</svg>
