<svg width="250" height="50" viewBox="0 0 250 50" fill="none" xmlns="http://www.w3.org/2000/svg">
<rect width="250" height="50" rx="20" fill="#892CDC"/>
<path d="M94.5368 30C94.3782 30 94.2475 29.9487 94.1448 29.846C94.0422 29.7433 93.9908 29.6127 93.9908 29.454V19.612C93.9908 19.4533 94.0422 19.3227 94.1448 19.22C94.2475 19.1173 94.3782 19.066 94.5368 19.066C94.6955 19.066 94.8262 19.1173 94.9288 19.22C95.0315 19.3227 95.0828 19.4533 95.0828 19.612V29.454C95.0828 29.6127 95.0315 29.7433 94.9288 29.846C94.8262 29.9487 94.6955 30 94.5368 30ZM96.8373 22.566C96.7253 22.566 96.6273 22.5147 96.5433 22.412C96.4686 22.3093 96.4593 22.1927 96.5153 22.062C96.6553 21.7353 96.7393 21.46 96.7673 21.236C96.7953 21.012 96.8 20.8207 96.7813 20.662C96.7626 20.494 96.7346 20.3353 96.6973 20.186C96.66 20.0367 96.6413 19.8687 96.6413 19.682C96.6413 19.458 96.7113 19.2807 96.8513 19.15C96.9913 19.01 97.164 18.94 97.3693 18.94C97.6026 18.94 97.7893 19.0427 97.9293 19.248C98.0693 19.444 98.1393 19.7147 98.1393 20.06C98.1393 20.2747 98.0926 20.522 97.9993 20.802C97.9153 21.082 97.808 21.3573 97.6773 21.628C97.5466 21.8987 97.4066 22.1227 97.2573 22.3C97.108 22.4773 96.968 22.566 96.8373 22.566ZM100.631 30C100.463 30 100.328 29.9533 100.225 29.86C100.132 29.7573 100.085 29.6267 100.085 29.468V22.888C100.085 22.7293 100.132 22.5987 100.225 22.496C100.328 22.3933 100.463 22.342 100.631 22.342C100.79 22.342 100.916 22.3933 101.009 22.496C101.112 22.5987 101.163 22.7293 101.163 22.888V23.196C101.425 22.8973 101.733 22.6687 102.087 22.51C102.442 22.342 102.834 22.258 103.263 22.258C103.786 22.258 104.248 22.3747 104.649 22.608C105.06 22.8413 105.387 23.1633 105.629 23.574C105.891 23.1633 106.241 22.8413 106.679 22.608C107.118 22.3747 107.608 22.258 108.149 22.258C108.7 22.258 109.185 22.3887 109.605 22.65C110.035 22.9113 110.366 23.28 110.599 23.756C110.842 24.232 110.963 24.792 110.963 25.436V29.468C110.963 29.6267 110.912 29.7573 110.809 29.86C110.716 29.9533 110.59 30 110.431 30C110.273 30 110.142 29.9533 110.039 29.86C109.937 29.7573 109.885 29.6267 109.885 29.468V25.436C109.885 24.7733 109.713 24.2507 109.367 23.868C109.022 23.476 108.579 23.28 108.037 23.28C107.459 23.28 106.983 23.476 106.609 23.868C106.245 24.2507 106.068 24.764 106.077 25.408V25.436V29.468C106.077 29.6267 106.026 29.7573 105.923 29.86C105.83 29.9533 105.704 30 105.545 30C105.387 30 105.256 29.9533 105.153 29.86C105.051 29.7573 104.999 29.6267 104.999 29.468V25.436C104.999 24.7733 104.827 24.2507 104.481 23.868C104.136 23.476 103.693 23.28 103.151 23.28C102.573 23.28 102.097 23.4713 101.723 23.854C101.35 24.2273 101.163 24.7173 101.163 25.324V29.468C101.163 29.6267 101.112 29.7573 101.009 29.86C100.916 29.9533 100.79 30 100.631 30ZM117.98 30C117.626 30 117.448 29.8227 117.448 29.468V22.874C117.448 22.5193 117.626 22.342 117.98 22.342C118.335 22.342 118.512 22.5193 118.512 22.874V23.476C118.792 23.1027 119.138 22.8087 119.548 22.594C119.959 22.37 120.412 22.258 120.906 22.258C121.336 22.258 121.667 22.3187 121.9 22.44C122.134 22.5613 122.222 22.7387 122.166 22.972C122.12 23.1867 122.008 23.2987 121.83 23.308C121.662 23.308 121.462 23.2987 121.228 23.28C120.706 23.2333 120.239 23.2893 119.828 23.448C119.427 23.5973 119.105 23.8307 118.862 24.148C118.629 24.4653 118.512 24.8433 118.512 25.282V29.468C118.512 29.8227 118.335 30 117.98 30ZM126.772 30.07C126.016 30.07 125.344 29.9067 124.756 29.58C124.177 29.244 123.72 28.782 123.384 28.194C123.057 27.606 122.894 26.934 122.894 26.178C122.894 25.4127 123.048 24.7407 123.356 24.162C123.673 23.574 124.107 23.112 124.658 22.776C125.209 22.44 125.843 22.272 126.562 22.272C127.271 22.272 127.887 22.4353 128.41 22.762C128.942 23.0793 129.353 23.5227 129.642 24.092C129.931 24.6613 130.076 25.31 130.076 26.038C130.076 26.1873 130.029 26.3087 129.936 26.402C129.843 26.486 129.721 26.528 129.572 26.528H123.916C123.972 27.032 124.126 27.48 124.378 27.872C124.63 28.2547 124.961 28.558 125.372 28.782C125.783 28.9967 126.249 29.104 126.772 29.104C127.108 29.104 127.444 29.048 127.78 28.936C128.125 28.8147 128.401 28.6653 128.606 28.488C128.709 28.404 128.825 28.362 128.956 28.362C129.087 28.3527 129.199 28.3853 129.292 28.46C129.413 28.572 129.474 28.6933 129.474 28.824C129.483 28.9547 129.432 29.0667 129.32 29.16C129.012 29.4213 128.62 29.6407 128.144 29.818C127.668 29.986 127.211 30.07 126.772 30.07ZM126.562 23.238C125.843 23.238 125.251 23.462 124.784 23.91C124.317 24.3487 124.037 24.9227 123.944 25.632H129.068C128.993 24.9227 128.732 24.3487 128.284 23.91C127.845 23.462 127.271 23.238 126.562 23.238ZM135 30.07C134.282 30.07 133.638 29.902 133.068 29.566C132.499 29.2207 132.046 28.754 131.71 28.166C131.384 27.578 131.22 26.9153 131.22 26.178C131.22 25.4313 131.388 24.764 131.724 24.176C132.07 23.588 132.536 23.126 133.124 22.79C133.712 22.4447 134.375 22.272 135.112 22.272C135.85 22.272 136.508 22.4447 137.086 22.79C137.674 23.126 138.136 23.588 138.472 24.176C138.818 24.764 138.995 25.4313 139.004 26.178V29.468C139.004 29.6267 138.953 29.7573 138.85 29.86C138.748 29.9533 138.617 30 138.458 30C138.3 30 138.169 29.9533 138.066 29.86C137.964 29.7573 137.912 29.6267 137.912 29.468V28.614C137.595 29.062 137.184 29.4167 136.68 29.678C136.176 29.9393 135.616 30.07 135 30.07ZM135.112 29.09C135.654 29.09 136.134 28.964 136.554 28.712C136.984 28.46 137.32 28.1147 137.562 27.676C137.814 27.228 137.94 26.7287 137.94 26.178C137.94 25.618 137.814 25.1187 137.562 24.68C137.32 24.2413 136.984 23.896 136.554 23.644C136.134 23.3827 135.654 23.252 135.112 23.252C134.58 23.252 134.1 23.3827 133.67 23.644C133.241 23.896 132.9 24.2413 132.648 24.68C132.396 25.1187 132.27 25.618 132.27 26.178C132.27 26.7287 132.396 27.228 132.648 27.676C132.9 28.1147 133.241 28.46 133.67 28.712C134.1 28.964 134.58 29.09 135.112 29.09ZM144.587 30.07C143.849 30.07 143.187 29.902 142.599 29.566C142.011 29.2207 141.544 28.754 141.199 28.166C140.863 27.578 140.695 26.9107 140.695 26.164C140.695 25.4267 140.858 24.764 141.185 24.176C141.521 23.588 141.973 23.126 142.543 22.79C143.112 22.4447 143.756 22.272 144.475 22.272C145.1 22.272 145.665 22.4073 146.169 22.678C146.673 22.9393 147.079 23.2893 147.387 23.728V19.612C147.387 19.444 147.438 19.3133 147.541 19.22C147.643 19.1173 147.774 19.066 147.933 19.066C148.091 19.066 148.222 19.1173 148.325 19.22C148.427 19.3133 148.479 19.444 148.479 19.612V26.22C148.46 26.948 148.278 27.606 147.933 28.194C147.597 28.7727 147.135 29.23 146.547 29.566C145.968 29.902 145.315 30.07 144.587 30.07ZM144.587 29.09C145.128 29.09 145.609 28.964 146.029 28.712C146.458 28.4507 146.794 28.1007 147.037 27.662C147.289 27.2233 147.415 26.724 147.415 26.164C147.415 25.6133 147.289 25.1187 147.037 24.68C146.794 24.232 146.458 23.882 146.029 23.63C145.609 23.378 145.128 23.252 144.587 23.252C144.055 23.252 143.574 23.378 143.145 23.63C142.715 23.882 142.375 24.232 142.123 24.68C141.871 25.1187 141.745 25.6133 141.745 26.164C141.745 26.724 141.871 27.2233 142.123 27.662C142.375 28.1007 142.715 28.4507 143.145 28.712C143.574 28.964 144.055 29.09 144.587 29.09ZM152.315 33.332C152.241 33.332 152.157 33.3133 152.063 33.276C151.746 33.136 151.657 32.912 151.797 32.604L153.197 29.538L153.183 29.524L150.061 23.056C149.996 22.916 149.987 22.7853 150.033 22.664C150.08 22.5427 150.173 22.4493 150.313 22.384C150.621 22.244 150.845 22.3233 150.985 22.622L153.715 28.376L156.319 22.636C156.459 22.3373 156.683 22.2533 156.991 22.384C157.309 22.5147 157.397 22.734 157.257 23.042L152.721 33.01C152.628 33.2247 152.493 33.332 152.315 33.332Z" fill="white"/>
</svg>
