<svg width="250" height="50" viewBox="0 0 250 50" fill="none" xmlns="http://www.w3.org/2000/svg">
<rect x="0.5" y="0.5" width="249" height="49" rx="19.5" stroke="#892CDC"/>
<path d="M100.47 27.754C101.24 28.832 102.388 29.252 103.69 29.252C105.3 29.252 106.77 28.258 106.77 26.466C106.77 22.742 101.66 24.534 101.66 21.552C101.66 20.292 102.696 19.676 103.886 19.676C104.74 19.676 105.356 20.012 105.818 20.656L106.616 20.082C105.944 19.2 104.992 18.836 103.914 18.836C102.248 18.836 100.736 19.788 100.736 21.552C100.736 25.318 105.846 23.694 105.846 26.466C105.846 27.656 104.866 28.412 103.62 28.412C102.64 28.412 101.842 27.992 101.352 27.166L100.47 27.754ZM113.723 27.264C113.303 27.964 112.407 28.412 111.553 28.412C109.593 28.412 109.103 26.676 109.103 25.976H114.535V25.388C114.535 23.89 113.485 22.364 111.497 22.364C109.607 22.364 108.263 23.82 108.263 25.752C108.263 27.754 109.565 29.168 111.539 29.168C112.687 29.168 113.681 28.762 114.339 27.782L113.723 27.264ZM109.103 25.22C109.103 24.884 109.621 23.12 111.455 23.12C112.701 23.12 113.695 24.072 113.695 25.22H109.103ZM119.57 22.532H117.722V20.67H116.882V22.532H115.482V23.288H116.882V27.502C116.882 28.426 117.344 29.168 118.548 29.168C118.87 29.168 119.332 29.056 119.64 28.944L119.57 28.188C119.276 28.314 118.94 28.412 118.618 28.412C118.058 28.412 117.722 28.076 117.722 27.502V23.288H119.57V22.532ZM124.232 22.532H122.384V20.67H121.544V22.532H120.144V23.288H121.544V27.502C121.544 28.426 122.006 29.168 123.21 29.168C123.532 29.168 123.994 29.056 124.302 28.944L124.232 28.188C123.938 28.314 123.602 28.412 123.28 28.412C122.72 28.412 122.384 28.076 122.384 27.502V23.288H124.232V22.532ZM125.87 29H126.71V22.532H125.87V29ZM125.66 19.97C125.66 20.32 125.94 20.6 126.29 20.6C126.64 20.6 126.92 20.32 126.92 19.97C126.92 19.62 126.64 19.34 126.29 19.34C125.94 19.34 125.66 19.62 125.66 19.97ZM129.094 29H129.934V25.766C129.934 23.988 130.928 23.12 132.174 23.12C133.504 23.12 133.798 24.142 133.798 25.192V29H134.638V25.15C134.638 23.736 134.19 22.364 132.174 22.364C131.124 22.364 130.298 22.952 129.962 23.666H129.92C129.892 23.54 129.878 23.008 129.864 22.532H129.024C129.024 22.868 129.094 23.876 129.094 24.352V29ZM143.369 22.532H142.529V23.624H142.501C142.011 22.854 141.157 22.364 140.051 22.364C138.147 22.364 136.593 23.862 136.593 25.682C136.593 27.502 138.147 29 140.051 29C141.157 29 142.011 28.51 142.501 27.74H142.529V28.636C142.529 29.364 142.487 31.604 139.925 31.604C138.917 31.604 137.965 31.212 137.377 30.386L136.719 31.002C137.377 31.856 138.623 32.36 139.925 32.36C141.241 32.36 143.369 31.8 143.369 28.58V22.532ZM142.557 25.682C142.557 27.096 141.409 28.244 139.995 28.244C138.581 28.244 137.433 27.096 137.433 25.682C137.433 24.268 138.581 23.12 139.995 23.12C141.409 23.12 142.557 24.268 142.557 25.682ZM144.704 27.852C145.208 28.748 146.202 29.168 147.308 29.168C148.54 29.168 149.646 28.496 149.646 27.166C149.646 24.548 145.81 25.906 145.81 24.156C145.81 23.484 146.58 23.12 147.182 23.12C147.938 23.12 148.386 23.442 148.708 24.03L149.464 23.582C149.044 22.756 148.232 22.364 147.182 22.364C146.118 22.364 144.97 22.966 144.97 24.226C144.97 26.69 148.806 25.444 148.806 27.222C148.806 27.964 148.05 28.412 147.322 28.412C146.566 28.412 145.796 28.034 145.446 27.348L144.704 27.852Z" fill="white"/>
</svg>
