<svg width="250" height="50" viewBox="0 0 250 50" fill="none" xmlns="http://www.w3.org/2000/svg">
<rect x="0.5" y="0.5" width="249" height="49" rx="19.5" stroke="#892CDC"/>
<path d="M99.9211 30.14C99.0251 30.14 98.2318 29.9487 97.5411 29.566C96.8598 29.1833 96.3745 28.6747 96.0851 28.04C96.0105 27.8907 96.0058 27.7553 96.0711 27.634C96.1458 27.5033 96.2671 27.4147 96.4351 27.368C96.5658 27.3307 96.6918 27.3447 96.8131 27.41C96.9438 27.4753 97.0418 27.5733 97.1071 27.704C97.3218 28.1147 97.6765 28.4507 98.1711 28.712C98.6658 28.9733 99.2491 29.104 99.9211 29.104C100.658 29.104 101.265 28.9267 101.741 28.572C102.226 28.208 102.469 27.6853 102.469 27.004C102.469 26.4347 102.259 25.9447 101.839 25.534C101.419 25.1233 100.761 24.862 99.8651 24.75C98.7731 24.6193 97.9191 24.2833 97.3031 23.742C96.6871 23.1913 96.3791 22.5193 96.3791 21.726C96.3791 21.1567 96.5285 20.662 96.8271 20.242C97.1351 19.822 97.5551 19.5 98.0871 19.276C98.6191 19.0427 99.2305 18.926 99.9211 18.926C100.696 18.926 101.358 19.1033 101.909 19.458C102.46 19.8033 102.884 20.214 103.183 20.69C103.276 20.8393 103.304 20.984 103.267 21.124C103.239 21.264 103.16 21.3713 103.029 21.446C102.889 21.5113 102.744 21.5207 102.595 21.474C102.455 21.4273 102.348 21.3387 102.273 21.208C102.058 20.8813 101.764 20.5967 101.391 20.354C101.027 20.102 100.532 19.9713 99.9071 19.962C99.1698 19.962 98.5771 20.1207 98.1291 20.438C97.6811 20.746 97.4571 21.1987 97.4571 21.796C97.4571 22.272 97.6485 22.6873 98.0311 23.042C98.4231 23.3967 99.1138 23.644 100.103 23.784C101.27 23.952 102.133 24.3113 102.693 24.862C103.262 25.4033 103.547 26.1127 103.547 26.99C103.547 27.662 103.384 28.236 103.057 28.712C102.74 29.1787 102.306 29.5333 101.755 29.776C101.204 30.0187 100.593 30.14 99.9211 30.14ZM109.163 30.07C108.407 30.07 107.735 29.9067 107.147 29.58C106.568 29.244 106.111 28.782 105.775 28.194C105.448 27.606 105.285 26.934 105.285 26.178C105.285 25.4127 105.439 24.7407 105.747 24.162C106.064 23.574 106.498 23.112 107.049 22.776C107.599 22.44 108.234 22.272 108.953 22.272C109.662 22.272 110.278 22.4353 110.801 22.762C111.333 23.0793 111.743 23.5227 112.033 24.092C112.322 24.6613 112.467 25.31 112.467 26.038C112.467 26.1873 112.42 26.3087 112.327 26.402C112.233 26.486 112.112 26.528 111.963 26.528H106.307C106.363 27.032 106.517 27.48 106.769 27.872C107.021 28.2547 107.352 28.558 107.763 28.782C108.173 28.9967 108.64 29.104 109.163 29.104C109.499 29.104 109.835 29.048 110.171 28.936C110.516 28.8147 110.791 28.6653 110.997 28.488C111.099 28.404 111.216 28.362 111.347 28.362C111.477 28.3527 111.589 28.3853 111.683 28.46C111.804 28.572 111.865 28.6933 111.865 28.824C111.874 28.9547 111.823 29.0667 111.711 29.16C111.403 29.4213 111.011 29.6407 110.535 29.818C110.059 29.986 109.601 30.07 109.163 30.07ZM108.953 23.238C108.234 23.238 107.641 23.462 107.175 23.91C106.708 24.3487 106.428 24.9227 106.335 25.632H111.459C111.384 24.9227 111.123 24.3487 110.675 23.91C110.236 23.462 109.662 23.238 108.953 23.238ZM117.286 30C116.792 30 116.348 29.8833 115.956 29.65C115.574 29.4167 115.27 29.0993 115.046 28.698C114.822 28.2873 114.71 27.8207 114.71 27.298V23.56H113.8C113.66 23.56 113.544 23.518 113.45 23.434C113.357 23.3407 113.31 23.2287 113.31 23.098C113.31 22.958 113.357 22.846 113.45 22.762C113.544 22.6687 113.66 22.622 113.8 22.622H114.71V20.452C114.71 20.2933 114.757 20.1627 114.85 20.06C114.953 19.9573 115.084 19.906 115.242 19.906C115.401 19.906 115.532 19.9573 115.634 20.06C115.737 20.1627 115.788 20.2933 115.788 20.452V22.622H117.37C117.51 22.622 117.627 22.6687 117.72 22.762C117.814 22.846 117.86 22.958 117.86 23.098C117.86 23.2287 117.814 23.3407 117.72 23.434C117.627 23.518 117.51 23.56 117.37 23.56H115.788V27.298C115.788 27.774 115.928 28.166 116.208 28.474C116.488 28.7727 116.848 28.922 117.286 28.922H117.664C117.814 28.922 117.935 28.9733 118.028 29.076C118.122 29.1787 118.168 29.3093 118.168 29.468C118.168 29.6267 118.112 29.7573 118 29.86C117.888 29.9533 117.748 30 117.58 30H117.286ZM122.919 30C122.424 30 121.981 29.8833 121.589 29.65C121.206 29.4167 120.903 29.0993 120.679 28.698C120.455 28.2873 120.343 27.8207 120.343 27.298V23.56H119.433C119.293 23.56 119.176 23.518 119.083 23.434C118.99 23.3407 118.943 23.2287 118.943 23.098C118.943 22.958 118.99 22.846 119.083 22.762C119.176 22.6687 119.293 22.622 119.433 22.622H120.343V20.452C120.343 20.2933 120.39 20.1627 120.483 20.06C120.586 19.9573 120.716 19.906 120.875 19.906C121.034 19.906 121.164 19.9573 121.267 20.06C121.37 20.1627 121.421 20.2933 121.421 20.452V22.622H123.003C123.143 22.622 123.26 22.6687 123.353 22.762C123.446 22.846 123.493 22.958 123.493 23.098C123.493 23.2287 123.446 23.3407 123.353 23.434C123.26 23.518 123.143 23.56 123.003 23.56H121.421V27.298C121.421 27.774 121.561 28.166 121.841 28.474C122.121 28.7727 122.48 28.922 122.919 28.922H123.297C123.446 28.922 123.568 28.9733 123.661 29.076C123.754 29.1787 123.801 29.3093 123.801 29.468C123.801 29.6267 123.745 29.7573 123.633 29.86C123.521 29.9533 123.381 30 123.213 30H122.919ZM126.326 30C126.158 30 126.023 29.9533 125.92 29.86C125.827 29.7573 125.78 29.622 125.78 29.454V22.888C125.78 22.72 125.827 22.5893 125.92 22.496C126.023 22.3933 126.158 22.342 126.326 22.342C126.485 22.342 126.611 22.3933 126.704 22.496C126.807 22.5893 126.858 22.72 126.858 22.888V29.454C126.858 29.622 126.807 29.7573 126.704 29.86C126.611 29.9533 126.485 30 126.326 30ZM126.312 20.886C126.107 20.886 125.929 20.8113 125.78 20.662C125.631 20.5127 125.556 20.3307 125.556 20.116C125.556 19.8827 125.631 19.7007 125.78 19.57C125.939 19.43 126.121 19.36 126.326 19.36C126.522 19.36 126.695 19.43 126.844 19.57C127.003 19.7007 127.082 19.8827 127.082 20.116C127.082 20.3307 127.007 20.5127 126.858 20.662C126.709 20.8113 126.527 20.886 126.312 20.886ZM130.149 30C129.981 30 129.845 29.9533 129.743 29.86C129.649 29.7573 129.603 29.6267 129.603 29.468V22.888C129.603 22.72 129.649 22.5893 129.743 22.496C129.845 22.3933 129.981 22.342 130.149 22.342C130.307 22.342 130.433 22.3933 130.527 22.496C130.629 22.5893 130.681 22.72 130.681 22.888V23.364C130.979 23.0187 131.348 22.748 131.787 22.552C132.235 22.356 132.715 22.258 133.229 22.258C133.891 22.258 134.484 22.398 135.007 22.678C135.529 22.9487 135.94 23.35 136.239 23.882C136.547 24.414 136.701 25.0627 136.701 25.828V29.468C136.701 29.6173 136.649 29.7433 136.547 29.846C136.444 29.9487 136.318 30 136.169 30C136.01 30 135.879 29.9487 135.777 29.846C135.674 29.7433 135.623 29.6173 135.623 29.468V25.828C135.623 24.96 135.38 24.3207 134.895 23.91C134.419 23.49 133.826 23.28 133.117 23.28C132.659 23.28 132.244 23.3687 131.871 23.546C131.507 23.7233 131.217 23.966 131.003 24.274C130.788 24.582 130.681 24.932 130.681 25.324V29.468C130.681 29.6267 130.629 29.7573 130.527 29.86C130.433 29.9533 130.307 30 130.149 30ZM142.451 30.07C141.714 30.07 141.061 29.9067 140.491 29.58C139.922 29.244 139.474 28.782 139.147 28.194C138.83 27.606 138.671 26.934 138.671 26.178C138.671 25.4127 138.839 24.736 139.175 24.148C139.511 23.56 139.973 23.1027 140.561 22.776C141.149 22.44 141.817 22.272 142.563 22.272C143.319 22.272 143.987 22.44 144.565 22.776C145.153 23.1027 145.611 23.56 145.937 24.148C146.273 24.736 146.446 25.4127 146.455 26.178V29.034C146.455 29.79 146.287 30.4667 145.951 31.064C145.615 31.6707 145.158 32.1467 144.579 32.492C144.001 32.8467 143.338 33.024 142.591 33.024C141.854 33.024 141.205 32.884 140.645 32.604C140.085 32.3333 139.623 31.96 139.259 31.484C139.157 31.372 139.11 31.2507 139.119 31.12C139.138 30.9893 139.208 30.882 139.329 30.798C139.451 30.714 139.586 30.686 139.735 30.714C139.885 30.742 140.001 30.812 140.085 30.924C140.356 31.26 140.701 31.5307 141.121 31.736C141.551 31.9413 142.045 32.044 142.605 32.044C143.128 32.044 143.599 31.918 144.019 31.666C144.439 31.414 144.771 31.0593 145.013 30.602C145.265 30.1447 145.391 29.608 145.391 28.992V28.348C145.111 28.88 144.715 29.3 144.201 29.608C143.697 29.916 143.114 30.07 142.451 30.07ZM142.563 29.09C143.114 29.09 143.599 28.9687 144.019 28.726C144.449 28.474 144.785 28.1287 145.027 27.69C145.27 27.2513 145.391 26.7473 145.391 26.178C145.391 25.6087 145.27 25.1047 145.027 24.666C144.785 24.218 144.449 23.8727 144.019 23.63C143.599 23.378 143.114 23.252 142.563 23.252C142.013 23.252 141.523 23.378 141.093 23.63C140.664 23.8727 140.328 24.218 140.085 24.666C139.843 25.1047 139.721 25.6087 139.721 26.178C139.721 26.7473 139.843 27.2513 140.085 27.69C140.328 28.1287 140.664 28.474 141.093 28.726C141.523 28.9687 142.013 29.09 142.563 29.09ZM151.226 30.07C150.675 30.07 150.129 29.9767 149.588 29.79C149.047 29.6033 148.608 29.3233 148.272 28.95C148.169 28.838 148.127 28.712 148.146 28.572C148.165 28.432 148.235 28.3107 148.356 28.208C148.487 28.1147 148.622 28.0773 148.762 28.096C148.902 28.1147 149.019 28.1753 149.112 28.278C149.336 28.5393 149.63 28.74 149.994 28.88C150.367 29.02 150.778 29.09 151.226 29.09C151.917 29.09 152.416 28.9733 152.724 28.74C153.032 28.4973 153.191 28.208 153.2 27.872C153.2 27.536 153.041 27.2607 152.724 27.046C152.407 26.822 151.884 26.6493 151.156 26.528C150.213 26.3787 149.523 26.1173 149.084 25.744C148.645 25.3707 148.426 24.9273 148.426 24.414C148.426 23.938 148.552 23.5413 148.804 23.224C149.056 22.9067 149.392 22.6687 149.812 22.51C150.232 22.3513 150.694 22.272 151.198 22.272C151.823 22.272 152.36 22.3793 152.808 22.594C153.265 22.8087 153.634 23.098 153.914 23.462C154.007 23.5833 154.045 23.7093 154.026 23.84C154.007 23.9707 153.933 24.078 153.802 24.162C153.69 24.2273 153.559 24.2507 153.41 24.232C153.27 24.204 153.149 24.134 153.046 24.022C152.589 23.4993 151.963 23.238 151.17 23.238C150.657 23.238 150.246 23.3453 149.938 23.56C149.63 23.7653 149.476 24.0267 149.476 24.344C149.476 24.6613 149.611 24.9227 149.882 25.128C150.162 25.3333 150.685 25.5013 151.45 25.632C152.15 25.744 152.701 25.912 153.102 26.136C153.513 26.3507 153.802 26.6073 153.97 26.906C154.147 27.1953 154.236 27.5127 154.236 27.858C154.236 28.2967 154.105 28.684 153.844 29.02C153.592 29.3467 153.237 29.6033 152.78 29.79C152.332 29.9767 151.814 30.07 151.226 30.07Z" fill="white"/>
</svg>
