<svg width="250" height="50" viewBox="0 0 250 50" fill="none" xmlns="http://www.w3.org/2000/svg">
<rect width="250" height="50" rx="20" fill="#892CDC"/>
<path d="M111.549 30.14C110.653 30.14 109.86 29.9487 109.169 29.566C108.488 29.1833 108.002 28.6747 107.713 28.04C107.638 27.8907 107.634 27.7553 107.699 27.634C107.774 27.5033 107.895 27.4147 108.063 27.368C108.194 27.3307 108.32 27.3447 108.441 27.41C108.572 27.4753 108.67 27.5733 108.735 27.704C108.95 28.1147 109.304 28.4507 109.799 28.712C110.294 28.9733 110.877 29.104 111.549 29.104C112.286 29.104 112.893 28.9267 113.369 28.572C113.854 28.208 114.097 27.6853 114.097 27.004C114.097 26.4347 113.887 25.9447 113.467 25.534C113.047 25.1233 112.389 24.862 111.493 24.75C110.401 24.6193 109.547 24.2833 108.931 23.742C108.315 23.1913 108.007 22.5193 108.007 21.726C108.007 21.1567 108.156 20.662 108.455 20.242C108.763 19.822 109.183 19.5 109.715 19.276C110.247 19.0427 110.858 18.926 111.549 18.926C112.324 18.926 112.986 19.1033 113.537 19.458C114.088 19.8033 114.512 20.214 114.811 20.69C114.904 20.8393 114.932 20.984 114.895 21.124C114.867 21.264 114.788 21.3713 114.657 21.446C114.517 21.5113 114.372 21.5207 114.223 21.474C114.083 21.4273 113.976 21.3387 113.901 21.208C113.686 20.8813 113.392 20.5967 113.019 20.354C112.655 20.102 112.16 19.9713 111.535 19.962C110.798 19.962 110.205 20.1207 109.757 20.438C109.309 20.746 109.085 21.1987 109.085 21.796C109.085 22.272 109.276 22.6873 109.659 23.042C110.051 23.3967 110.742 23.644 111.731 23.784C112.898 23.952 113.761 24.3113 114.321 24.862C114.89 25.4033 115.175 26.1127 115.175 26.99C115.175 27.662 115.012 28.236 114.685 28.712C114.368 29.1787 113.934 29.5333 113.383 29.776C112.832 30.0187 112.221 30.14 111.549 30.14ZM120.315 30C119.82 30 119.377 29.8833 118.985 29.65C118.602 29.4167 118.299 29.0993 118.075 28.698C117.851 28.2873 117.739 27.8207 117.739 27.298V23.56H116.829C116.689 23.56 116.572 23.518 116.479 23.434C116.385 23.3407 116.339 23.2287 116.339 23.098C116.339 22.958 116.385 22.846 116.479 22.762C116.572 22.6687 116.689 22.622 116.829 22.622H117.739V20.452C117.739 20.2933 117.785 20.1627 117.879 20.06C117.981 19.9573 118.112 19.906 118.271 19.906C118.429 19.906 118.56 19.9573 118.663 20.06C118.765 20.1627 118.817 20.2933 118.817 20.452V22.622H120.399C120.539 22.622 120.655 22.6687 120.749 22.762C120.842 22.846 120.889 22.958 120.889 23.098C120.889 23.2287 120.842 23.3407 120.749 23.434C120.655 23.518 120.539 23.56 120.399 23.56H118.817V27.298C118.817 27.774 118.957 28.166 119.237 28.474C119.517 28.7727 119.876 28.922 120.315 28.922H120.693C120.842 28.922 120.963 28.9733 121.057 29.076C121.15 29.1787 121.197 29.3093 121.197 29.468C121.197 29.6267 121.141 29.7573 121.029 29.86C120.917 29.9533 120.777 30 120.609 30H120.315ZM126.325 30.07C125.607 30.07 124.963 29.902 124.393 29.566C123.824 29.2207 123.371 28.754 123.035 28.166C122.709 27.578 122.545 26.9153 122.545 26.178C122.545 25.4313 122.713 24.764 123.049 24.176C123.395 23.588 123.861 23.126 124.449 22.79C125.037 22.4447 125.7 22.272 126.437 22.272C127.175 22.272 127.833 22.4447 128.411 22.79C128.999 23.126 129.461 23.588 129.797 24.176C130.143 24.764 130.32 25.4313 130.329 26.178V29.468C130.329 29.6267 130.278 29.7573 130.175 29.86C130.073 29.9533 129.942 30 129.783 30C129.625 30 129.494 29.9533 129.391 29.86C129.289 29.7573 129.237 29.6267 129.237 29.468V28.614C128.92 29.062 128.509 29.4167 128.005 29.678C127.501 29.9393 126.941 30.07 126.325 30.07ZM126.437 29.09C126.979 29.09 127.459 28.964 127.879 28.712C128.309 28.46 128.645 28.1147 128.887 27.676C129.139 27.228 129.265 26.7287 129.265 26.178C129.265 25.618 129.139 25.1187 128.887 24.68C128.645 24.2413 128.309 23.896 127.879 23.644C127.459 23.3827 126.979 23.252 126.437 23.252C125.905 23.252 125.425 23.3827 124.995 23.644C124.566 23.896 124.225 24.2413 123.973 24.68C123.721 25.1187 123.595 25.618 123.595 26.178C123.595 26.7287 123.721 27.228 123.973 27.676C124.225 28.1147 124.566 28.46 124.995 28.712C125.425 28.964 125.905 29.09 126.437 29.09ZM132.958 30C132.603 30 132.426 29.8227 132.426 29.468V22.874C132.426 22.5193 132.603 22.342 132.958 22.342C133.313 22.342 133.49 22.5193 133.49 22.874V23.476C133.77 23.1027 134.115 22.8087 134.526 22.594C134.937 22.37 135.389 22.258 135.884 22.258C136.313 22.258 136.645 22.3187 136.878 22.44C137.111 22.5613 137.2 22.7387 137.144 22.972C137.097 23.1867 136.985 23.2987 136.808 23.308C136.64 23.308 136.439 23.2987 136.206 23.28C135.683 23.2333 135.217 23.2893 134.806 23.448C134.405 23.5973 134.083 23.8307 133.84 24.148C133.607 24.4653 133.49 24.8433 133.49 25.282V29.468C133.49 29.8227 133.313 30 132.958 30ZM141.834 30C141.339 30 140.896 29.8833 140.504 29.65C140.121 29.4167 139.818 29.0993 139.594 28.698C139.37 28.2873 139.258 27.8207 139.258 27.298V23.56H138.348C138.208 23.56 138.091 23.518 137.998 23.434C137.905 23.3407 137.858 23.2287 137.858 23.098C137.858 22.958 137.905 22.846 137.998 22.762C138.091 22.6687 138.208 22.622 138.348 22.622H139.258V20.452C139.258 20.2933 139.305 20.1627 139.398 20.06C139.501 19.9573 139.631 19.906 139.79 19.906C139.949 19.906 140.079 19.9573 140.182 20.06C140.285 20.1627 140.336 20.2933 140.336 20.452V22.622H141.918C142.058 22.622 142.175 22.6687 142.268 22.762C142.361 22.846 142.408 22.958 142.408 23.098C142.408 23.2287 142.361 23.3407 142.268 23.434C142.175 23.518 142.058 23.56 141.918 23.56H140.336V27.298C140.336 27.774 140.476 28.166 140.756 28.474C141.036 28.7727 141.395 28.922 141.834 28.922H142.212C142.361 28.922 142.483 28.9733 142.576 29.076C142.669 29.1787 142.716 29.3093 142.716 29.468C142.716 29.6267 142.66 29.7573 142.548 29.86C142.436 29.9533 142.296 30 142.128 30H141.834Z" fill="white"/>
</svg>
