<svg width="250" height="50" viewBox="0 0 250 50" fill="none" xmlns="http://www.w3.org/2000/svg">
<rect x="0.5" y="0.5" width="249" height="49" rx="19.5" stroke="#892CDC"/>
<path d="M88.4041 27.754C89.1741 28.832 90.3221 29.252 91.6241 29.252C93.2341 29.252 94.7041 28.258 94.7041 26.466C94.7041 22.742 89.5941 24.534 89.5941 21.552C89.5941 20.292 90.6301 19.676 91.8201 19.676C92.6741 19.676 93.2901 20.012 93.7521 20.656L94.5501 20.082C93.8781 19.2 92.9261 18.836 91.8481 18.836C90.1821 18.836 88.6701 19.788 88.6701 21.552C88.6701 25.318 93.7801 23.694 93.7801 26.466C93.7801 27.656 92.8001 28.412 91.5541 28.412C90.5741 28.412 89.7761 27.992 89.2861 27.166L88.4041 27.754ZM102.035 22.532H101.195V25.766C101.195 27.544 100.201 28.412 98.9554 28.412C97.6254 28.412 97.3314 27.39 97.3314 26.34V22.532H96.4914V26.382C96.4914 27.796 96.9394 29.168 98.9554 29.168C100.005 29.168 100.831 28.58 101.167 27.866H101.209C101.237 27.992 101.251 28.524 101.265 29H102.105C102.105 28.664 102.035 27.656 102.035 27.18V22.532ZM104.159 29H104.999V27.866H105.027C105.545 28.762 106.651 29.168 107.617 29.168C109.605 29.168 111.019 27.74 111.019 25.766C111.019 23.792 109.605 22.364 107.617 22.364C106.651 22.364 105.545 22.77 105.027 23.666H104.999V18.416H104.159V29ZM104.915 25.766C104.915 24.31 106.091 23.12 107.617 23.12C109.199 23.12 110.179 24.31 110.179 25.766C110.179 27.222 109.199 28.412 107.617 28.412C106.091 28.412 104.915 27.222 104.915 25.766ZM112.899 29H113.739V25.766C113.739 23.988 114.733 23.12 115.979 23.12C116.889 23.12 117.323 23.918 117.323 25.108V29H118.163V25.36C118.163 24.436 118.569 23.12 120.123 23.12C121.453 23.12 121.747 24.142 121.747 25.192V29H122.587V25.15C122.587 23.736 122.139 22.364 120.123 22.364C119.227 22.364 118.331 22.798 117.925 23.764C117.617 22.784 116.833 22.364 115.979 22.364C114.929 22.364 114.103 22.952 113.767 23.666H113.725C113.697 23.54 113.683 23.008 113.669 22.532H112.829C112.829 22.868 112.899 23.876 112.899 24.352V29ZM124.961 29H125.801V22.532H124.961V29ZM124.751 19.97C124.751 20.32 125.031 20.6 125.381 20.6C125.731 20.6 126.011 20.32 126.011 19.97C126.011 19.62 125.731 19.34 125.381 19.34C125.031 19.34 124.751 19.62 124.751 19.97ZM131.348 22.532H129.5V20.67H128.66V22.532H127.26V23.288H128.66V27.502C128.66 28.426 129.122 29.168 130.326 29.168C130.648 29.168 131.11 29.056 131.418 28.944L131.348 28.188C131.054 28.314 130.718 28.412 130.396 28.412C129.836 28.412 129.5 28.076 129.5 27.502V23.288H131.348V22.532ZM141.257 27.516C140.823 28.048 140.221 28.412 139.521 28.412C137.939 28.412 136.959 27.222 136.959 25.766C136.959 24.31 137.939 23.12 139.521 23.12C140.193 23.12 140.767 23.456 141.257 23.988L141.929 23.484C141.299 22.77 140.459 22.364 139.521 22.364C137.533 22.364 136.119 23.792 136.119 25.766C136.119 27.74 137.533 29.168 139.521 29.168C140.445 29.168 141.271 28.804 141.901 28.048L141.257 27.516ZM148.25 24.702C148.25 23.064 147.242 22.364 145.674 22.364C144.834 22.364 143.826 22.686 143.21 23.274L143.7 23.848C144.274 23.358 144.918 23.12 145.674 23.12C146.71 23.12 147.494 23.568 147.494 24.688V25.08H146.514C145.24 25.08 142.93 25.276 142.93 27.25C142.93 28.622 144.106 29.168 145.212 29.168C146.304 29.168 147.004 28.776 147.48 27.95H147.508C147.508 28.314 147.536 28.678 147.592 29H148.376C148.278 28.258 148.25 27.544 148.25 26.284V24.702ZM147.494 25.752V26.186C147.494 27.264 147.032 28.412 145.24 28.412C144.54 28.412 143.77 28.006 143.77 27.208C143.77 26.102 145.17 25.752 146.57 25.752H147.494ZM150.483 29H151.323V25.472C151.323 24.212 151.981 23.204 153.437 23.204C153.521 23.204 153.633 23.218 153.759 23.26L153.857 22.434C153.689 22.392 153.535 22.364 153.367 22.364C152.401 22.364 151.729 22.91 151.309 23.666C151.281 23.54 151.267 23.008 151.253 22.532H150.413C150.413 22.868 150.483 23.876 150.483 24.352V29ZM160.555 29H161.395V18.416H160.555V23.666H160.527C160.009 22.77 158.903 22.364 157.937 22.364C155.949 22.364 154.535 23.792 154.535 25.766C154.535 27.74 155.949 29.168 157.937 29.168C158.903 29.168 160.009 28.762 160.527 27.866H160.555V29ZM160.639 25.766C160.639 27.222 159.463 28.412 157.937 28.412C156.355 28.412 155.375 27.222 155.375 25.766C155.375 24.31 156.355 23.12 157.937 23.12C159.463 23.12 160.639 24.31 160.639 25.766Z" fill="white"/>
</svg>
