<svg width="75" height="95" viewBox="0 0 75 95" fill="none" xmlns="http://www.w3.org/2000/svg">
<path d="M13.8111 75.288C12.7191 75.288 11.7471 75.078 10.8951 74.658C10.0551 74.238 9.39509 73.656 8.91509 72.912C8.44709 72.168 8.21309 71.316 8.21309 70.356V61.644C8.21309 61.44 8.27909 61.272 8.41109 61.14C8.54309 61.008 8.71109 60.942 8.91509 60.942C9.11909 60.942 9.28709 61.008 9.41909 61.14C9.55109 61.272 9.61709 61.44 9.61709 61.644V70.356C9.61709 71.064 9.79109 71.688 10.1391 72.228C10.4991 72.768 10.9971 73.194 11.6331 73.506C12.2691 73.806 12.9951 73.956 13.8111 73.956C14.6151 73.956 15.3291 73.806 15.9531 73.506C16.5771 73.194 17.0631 72.768 17.4111 72.228C17.7711 71.688 17.9511 71.064 17.9511 70.356V61.644C17.9511 61.44 18.0171 61.272 18.1491 61.14C18.2811 61.008 18.4491 60.942 18.6531 60.942C18.8691 60.942 19.0371 61.008 19.1571 61.14C19.2891 61.272 19.3551 61.44 19.3551 61.644V70.356C19.3551 71.316 19.1151 72.168 18.6351 72.912C18.1671 73.656 17.5131 74.238 16.6731 74.658C15.8451 75.078 14.8911 75.288 13.8111 75.288ZM27.2811 75.18C26.1291 75.18 25.1091 74.934 24.2211 74.442C23.3451 73.95 22.7211 73.296 22.3491 72.48C22.2531 72.288 22.2471 72.114 22.3311 71.958C22.4271 71.79 22.5831 71.676 22.7991 71.616C22.9671 71.568 23.1291 71.586 23.2851 71.67C23.4531 71.754 23.5791 71.88 23.6631 72.048C23.9391 72.576 24.3951 73.008 25.0311 73.344C25.6671 73.68 26.4171 73.848 27.2811 73.848C28.2291 73.848 29.0091 73.62 29.6211 73.164C30.2451 72.696 30.5571 72.024 30.5571 71.148C30.5571 70.416 30.2871 69.786 29.7471 69.258C29.2071 68.73 28.3611 68.394 27.2091 68.25C25.8051 68.082 24.7071 67.65 23.9151 66.954C23.1231 66.246 22.7271 65.382 22.7271 64.362C22.7271 63.63 22.9191 62.994 23.3031 62.454C23.6991 61.914 24.2391 61.5 24.9231 61.212C25.6071 60.912 26.3931 60.762 27.2811 60.762C28.2771 60.762 29.1291 60.99 29.8371 61.446C30.5451 61.89 31.0911 62.418 31.4751 63.03C31.5951 63.222 31.6311 63.408 31.5831 63.588C31.5471 63.768 31.4451 63.906 31.2771 64.002C31.0971 64.086 30.9111 64.098 30.7191 64.038C30.5391 63.978 30.4011 63.864 30.3051 63.696C30.0291 63.276 29.6511 62.91 29.1711 62.598C28.7031 62.274 28.0671 62.106 27.2631 62.094C26.3151 62.094 25.5531 62.298 24.9771 62.706C24.4011 63.102 24.1131 63.684 24.1131 64.452C24.1131 65.064 24.3591 65.598 24.8511 66.054C25.3551 66.51 26.2431 66.828 27.5151 67.008C29.0151 67.224 30.1251 67.686 30.8451 68.394C31.5771 69.09 31.9431 70.002 31.9431 71.13C31.9431 71.994 31.7331 72.732 31.3131 73.344C30.9051 73.944 30.3471 74.4 29.6391 74.712C28.9311 75.024 28.1451 75.18 27.2811 75.18ZM35.5811 75C35.3771 75 35.2091 74.934 35.0771 74.802C34.9451 74.67 34.8791 74.502 34.8791 74.298V61.644C34.8791 61.44 34.9451 61.272 35.0771 61.14C35.2091 61.008 35.3771 60.942 35.5811 60.942H44.0231C44.2151 60.942 44.3771 61.008 44.5091 61.14C44.6531 61.26 44.7251 61.422 44.7251 61.626C44.7251 61.806 44.6531 61.962 44.5091 62.094C44.3771 62.226 44.2151 62.292 44.0231 62.292H36.2831V67.26H41.9171C42.1211 67.26 42.2891 67.326 42.4211 67.458C42.5531 67.59 42.6191 67.752 42.6191 67.944C42.6191 68.136 42.5531 68.298 42.4211 68.43C42.2891 68.562 42.1211 68.628 41.9171 68.628H36.2831V73.65H44.0231C44.2151 73.65 44.3771 73.716 44.5091 73.848C44.6531 73.98 44.7251 74.136 44.7251 74.316C44.7251 74.52 44.6531 74.688 44.5091 74.82C44.3771 74.94 44.2151 75 44.0231 75H35.5811ZM48.044 75C47.84 75 47.672 74.934 47.54 74.802C47.408 74.67 47.342 74.502 47.342 74.298V61.644C47.342 61.44 47.408 61.272 47.54 61.14C47.672 61.008 47.84 60.942 48.044 60.942H51.41C52.286 60.942 53.066 61.128 53.75 61.5C54.434 61.86 54.968 62.37 55.352 63.03C55.748 63.678 55.946 64.428 55.946 65.28C55.946 66.216 55.694 67.032 55.19 67.728C54.686 68.412 54.014 68.898 53.174 69.186L56.126 73.92C56.306 74.208 56.336 74.46 56.216 74.676C56.108 74.892 55.892 75 55.568 75C55.412 75 55.286 74.97 55.19 74.91C55.106 74.85 55.028 74.76 54.956 74.64L51.716 69.474C51.62 69.486 51.518 69.492 51.41 69.492H48.746V74.298C48.746 74.502 48.68 74.67 48.548 74.802C48.416 74.934 48.248 75 48.044 75ZM48.746 68.142H51.41C52.022 68.142 52.562 68.022 53.03 67.782C53.51 67.53 53.888 67.188 54.164 66.756C54.44 66.324 54.578 65.832 54.578 65.28C54.578 64.692 54.44 64.176 54.164 63.732C53.888 63.276 53.51 62.922 53.03 62.67C52.562 62.418 52.022 62.292 51.41 62.292H48.746V68.142ZM62.7889 75.18C61.6369 75.18 60.6169 74.934 59.7289 74.442C58.8529 73.95 58.2289 73.296 57.8569 72.48C57.7609 72.288 57.7549 72.114 57.8389 71.958C57.9349 71.79 58.0909 71.676 58.3069 71.616C58.4749 71.568 58.6369 71.586 58.7929 71.67C58.9609 71.754 59.0869 71.88 59.1709 72.048C59.4469 72.576 59.9029 73.008 60.5389 73.344C61.1749 73.68 61.9249 73.848 62.7889 73.848C63.7369 73.848 64.5169 73.62 65.1289 73.164C65.7529 72.696 66.0649 72.024 66.0649 71.148C66.0649 70.416 65.7949 69.786 65.2549 69.258C64.7149 68.73 63.8689 68.394 62.7169 68.25C61.3129 68.082 60.2149 67.65 59.4229 66.954C58.6309 66.246 58.2349 65.382 58.2349 64.362C58.2349 63.63 58.4269 62.994 58.8109 62.454C59.2069 61.914 59.7469 61.5 60.4309 61.212C61.1149 60.912 61.9009 60.762 62.7889 60.762C63.7849 60.762 64.6369 60.99 65.3449 61.446C66.0529 61.89 66.5989 62.418 66.9829 63.03C67.1029 63.222 67.1389 63.408 67.0909 63.588C67.0549 63.768 66.9529 63.906 66.7849 64.002C66.6049 64.086 66.4189 64.098 66.2269 64.038C66.0469 63.978 65.9089 63.864 65.8129 63.696C65.5369 63.276 65.1589 62.91 64.6789 62.598C64.2109 62.274 63.5749 62.106 62.7709 62.094C61.8229 62.094 61.0609 62.298 60.4849 62.706C59.9089 63.102 59.6209 63.684 59.6209 64.452C59.6209 65.064 59.8669 65.598 60.3589 66.054C60.8629 66.51 61.7509 66.828 63.0229 67.008C64.5229 67.224 65.6329 67.686 66.3529 68.394C67.0849 69.09 67.4509 70.002 67.4509 71.13C67.4509 71.994 67.2409 72.732 66.8209 73.344C66.4129 73.944 65.8549 74.4 65.1469 74.712C64.4389 75.024 63.6529 75.18 62.7889 75.18Z" fill="white"/>
<path d="M9.45825 44.25C9.45825 38.7187 16.8333 38.7187 20.5208 35.0312C22.3645 33.1875 16.8333 33.1875 16.8333 23.9687C16.8333 17.8235 19.291 14.75 24.2083 14.75C29.1255 14.75 31.5833 17.8235 31.5833 23.9687C31.5833 33.1875 26.052 33.1875 27.8958 35.0312C31.5833 38.7187 38.9583 38.7187 38.9583 44.25" stroke="#892CDC" stroke-width="5" stroke-linecap="round"/>
<path d="M36.4868 39.931C37.8807 38.9703 39.6901 38.2787 41.4216 37.4448C42.7753 36.7928 44.0814 36.0538 45.1039 35.0312C46.9477 33.1875 41.4164 33.1875 41.4164 23.9687C41.4164 17.8235 43.8741 14.75 48.7914 14.75C53.7087 14.75 56.1664 17.8235 56.1664 23.9687C56.1664 33.1875 50.6352 33.1875 52.4789 35.0312C56.1664 38.7187 63.5414 38.7187 63.5414 44.25" stroke="#892CDC" stroke-width="5" stroke-linecap="round"/>
</svg>
