<svg width="75" height="103" viewBox="0 0 75 103" fill="none" xmlns="http://www.w3.org/2000/svg">
<path d="M26.4855 69.256H25.2975V76.816C25.2975 78.634 24.8115 81.244 21.8415 81.244C18.8715 81.244 18.3855 78.634 18.3855 76.816V69.256H17.1975V77.122C17.1975 79.84 18.3675 82.324 21.8415 82.324C25.3155 82.324 26.4855 79.84 26.4855 77.122V69.256ZM28.4942 80.524C29.1422 81.676 30.4202 82.216 31.8422 82.216C33.4262 82.216 34.8482 81.352 34.8482 79.642C34.8482 76.276 29.9162 78.022 29.9162 75.772C29.9162 74.908 30.9062 74.44 31.6802 74.44C32.6522 74.44 33.2282 74.854 33.6422 75.61L34.6142 75.034C34.0742 73.972 33.0302 73.468 31.6802 73.468C30.3122 73.468 28.8362 74.242 28.8362 75.862C28.8362 79.03 33.7682 77.428 33.7682 79.714C33.7682 80.668 32.7962 81.244 31.8602 81.244C30.8882 81.244 29.8982 80.758 29.4482 79.876L28.4942 80.524ZM43.6463 79.768C43.1063 80.668 41.9543 81.244 40.8563 81.244C38.3363 81.244 37.7063 79.012 37.7063 78.112H44.6903V77.356C44.6903 75.43 43.3403 73.468 40.7843 73.468C38.3543 73.468 36.6263 75.34 36.6263 77.824C36.6263 80.398 38.3003 82.216 40.8383 82.216C42.3143 82.216 43.5923 81.694 44.4383 80.434L43.6463 79.768ZM37.7063 77.14C37.7063 76.708 38.3723 74.44 40.7303 74.44C42.3323 74.44 43.6103 75.664 43.6103 77.14H37.7063ZM47.0963 82H48.1763V77.464C48.1763 75.844 49.0223 74.548 50.8943 74.548C51.0023 74.548 51.1463 74.566 51.3083 74.62L51.4343 73.558C51.2183 73.504 51.0203 73.468 50.8043 73.468C49.5623 73.468 48.6983 74.17 48.1583 75.142C48.1223 74.98 48.1043 74.296 48.0863 73.684H47.0063C47.0063 74.116 47.0963 75.412 47.0963 76.024V82ZM52.1544 80.524C52.8024 81.676 54.0804 82.216 55.5024 82.216C57.0864 82.216 58.5084 81.352 58.5084 79.642C58.5084 76.276 53.5764 78.022 53.5764 75.772C53.5764 74.908 54.5664 74.44 55.3404 74.44C56.3124 74.44 56.8884 74.854 57.3024 75.61L58.2744 75.034C57.7344 73.972 56.6904 73.468 55.3404 73.468C53.9724 73.468 52.4964 74.242 52.4964 75.862C52.4964 79.03 57.4284 77.428 57.4284 79.714C57.4284 80.668 56.4564 81.244 55.5204 81.244C54.5484 81.244 53.5584 80.758 53.1084 79.876L52.1544 80.524Z" fill="white"/>
<path d="M9.45825 44.25C9.45825 38.7187 16.8333 38.7187 20.5208 35.0312C22.3645 33.1875 16.8333 33.1875 16.8333 23.9687C16.8333 17.8235 19.291 14.75 24.2083 14.75C29.1255 14.75 31.5833 17.8235 31.5833 23.9687C31.5833 33.1875 26.052 33.1875 27.8958 35.0312C31.5833 38.7187 38.9583 38.7187 38.9583 44.25" stroke="#892CDC" stroke-width="5" stroke-linecap="round"/>
<path d="M36.4868 39.931C37.8807 38.9703 39.6901 38.2787 41.4216 37.4448C42.7753 36.7928 44.0814 36.0538 45.1039 35.0312C46.9477 33.1875 41.4164 33.1875 41.4164 23.9687C41.4164 17.8235 43.8741 14.75 48.7914 14.75C53.7087 14.75 56.1664 17.8235 56.1664 23.9687C56.1664 33.1875 50.6352 33.1875 52.4789 35.0312C56.1664 38.7187 63.5414 38.7187 63.5414 44.25" stroke="#892CDC" stroke-width="5" stroke-linecap="round"/>
</svg>
