<svg width="254" height="400" viewBox="0 0 254 400" fill="none" xmlns="http://www.w3.org/2000/svg">
<rect x="1" width="250" height="400" rx="20" fill="#250039"/>
<path d="M251 226.028H144.343" stroke="white" stroke-width="5" stroke-linecap="round"/>
<path d="M3 226.028H110.487C113.357 226.028 114.755 222.183 112.688 220.192C107.108 214.816 99.7998 206.449 98.1499 198.223C95.4008 184.516 101.685 178.446 106.397 175.704C111.11 172.963 120.587 172.76 125.266 180.955" stroke="white" stroke-width="5" stroke-linecap="round"/>
<path d="M166.455 226.028H140.044C137.174 226.028 135.776 222.183 137.843 220.192C143.424 214.816 150.732 206.449 152.382 198.223C155.131 184.516 148.847 178.446 144.134 175.704C139.421 172.963 129.944 172.76 125.266 180.955" stroke="#892CDC" stroke-width="5" stroke-linecap="round"/>
</svg>
