<svg width="250" height="50" viewBox="0 0 250 50" fill="none" xmlns="http://www.w3.org/2000/svg">
<rect width="250" height="50" rx="20" fill="#892CDC"/>
<path d="M111.838 29H112.762V24.296H118.306V29H119.23V19.088H118.306V23.456H112.762V19.088H111.838V29ZM121.34 25.766C121.34 27.74 122.754 29.168 124.742 29.168C126.73 29.168 128.144 27.74 128.144 25.766C128.144 23.792 126.73 22.364 124.742 22.364C122.754 22.364 121.34 23.792 121.34 25.766ZM122.18 25.766C122.18 24.31 123.16 23.12 124.742 23.12C126.324 23.12 127.304 24.31 127.304 25.766C127.304 27.222 126.324 28.412 124.742 28.412C123.16 28.412 122.18 27.222 122.18 25.766ZM129.288 27.852C129.792 28.748 130.786 29.168 131.892 29.168C133.124 29.168 134.23 28.496 134.23 27.166C134.23 24.548 130.394 25.906 130.394 24.156C130.394 23.484 131.164 23.12 131.766 23.12C132.522 23.12 132.97 23.442 133.292 24.03L134.048 23.582C133.628 22.756 132.816 22.364 131.766 22.364C130.702 22.364 129.554 22.966 129.554 24.226C129.554 26.69 133.39 25.444 133.39 27.222C133.39 27.964 132.634 28.412 131.906 28.412C131.15 28.412 130.38 28.034 130.03 27.348L129.288 27.852ZM139.141 22.532H137.293V20.67H136.453V22.532H135.053V23.288H136.453V27.502C136.453 28.426 136.915 29.168 138.119 29.168C138.441 29.168 138.903 29.056 139.211 28.944L139.141 28.188C138.847 28.314 138.511 28.412 138.189 28.412C137.629 28.412 137.293 28.076 137.293 27.502V23.288H139.141V22.532Z" fill="white"/>
</svg>
