<svg width="250" height="50" viewBox="0 0 250 50" fill="none" xmlns="http://www.w3.org/2000/svg">
<rect width="250" height="50" rx="20" fill="#892CDC"/>
<path d="M97.6949 29H98.6189V19.088H97.6949V29ZM100.842 22.28H101.668L102.746 19.088H101.724L100.842 22.28ZM104.73 29H105.57V25.766C105.57 23.988 106.564 23.12 107.81 23.12C108.72 23.12 109.154 23.918 109.154 25.108V29H109.994V25.36C109.994 24.436 110.4 23.12 111.954 23.12C113.284 23.12 113.578 24.142 113.578 25.192V29H114.418V25.15C114.418 23.736 113.97 22.364 111.954 22.364C111.058 22.364 110.162 22.798 109.756 23.764C109.448 22.784 108.664 22.364 107.81 22.364C106.76 22.364 105.934 22.952 105.598 23.666H105.556C105.528 23.54 105.514 23.008 105.5 22.532H104.66C104.66 22.868 104.73 23.876 104.73 24.352V29ZM120.289 29H121.129V25.472C121.129 24.212 121.787 23.204 123.243 23.204C123.327 23.204 123.439 23.218 123.565 23.26L123.663 22.434C123.495 22.392 123.341 22.364 123.173 22.364C122.207 22.364 121.535 22.91 121.115 23.666C121.087 23.54 121.073 23.008 121.059 22.532H120.219C120.219 22.868 120.289 23.876 120.289 24.352V29ZM129.801 27.264C129.381 27.964 128.485 28.412 127.631 28.412C125.671 28.412 125.181 26.676 125.181 25.976H130.613V25.388C130.613 23.89 129.563 22.364 127.575 22.364C125.685 22.364 124.341 23.82 124.341 25.752C124.341 27.754 125.643 29.168 127.617 29.168C128.765 29.168 129.759 28.762 130.417 27.782L129.801 27.264ZM125.181 25.22C125.181 24.884 125.699 23.12 127.533 23.12C128.779 23.12 129.773 24.072 129.773 25.22H125.181ZM137.51 24.702C137.51 23.064 136.502 22.364 134.934 22.364C134.094 22.364 133.086 22.686 132.47 23.274L132.96 23.848C133.534 23.358 134.178 23.12 134.934 23.12C135.97 23.12 136.754 23.568 136.754 24.688V25.08H135.774C134.5 25.08 132.19 25.276 132.19 27.25C132.19 28.622 133.366 29.168 134.472 29.168C135.564 29.168 136.264 28.776 136.74 27.95H136.768C136.768 28.314 136.796 28.678 136.852 29H137.636C137.538 28.258 137.51 27.544 137.51 26.284V24.702ZM136.754 25.752V26.186C136.754 27.264 136.292 28.412 134.5 28.412C133.8 28.412 133.03 28.006 133.03 27.208C133.03 26.102 134.43 25.752 135.83 25.752H136.754ZM145.4 29H146.24V18.416H145.4V23.666H145.372C144.854 22.77 143.748 22.364 142.782 22.364C140.794 22.364 139.38 23.792 139.38 25.766C139.38 27.74 140.794 29.168 142.782 29.168C143.748 29.168 144.854 28.762 145.372 27.866H145.4V29ZM145.484 25.766C145.484 27.222 144.308 28.412 142.782 28.412C141.2 28.412 140.22 27.222 140.22 25.766C140.22 24.31 141.2 23.12 142.782 23.12C144.308 23.12 145.484 24.31 145.484 25.766ZM153.455 22.532H152.559L150.473 27.978L148.331 22.532H147.393L150.025 29.028L149.437 30.526C149.241 31.03 148.975 31.604 148.359 31.604C148.107 31.604 147.841 31.52 147.603 31.45L147.519 32.234C147.785 32.304 148.065 32.36 148.345 32.36C149.269 32.36 149.801 31.828 150.123 31.002L153.455 22.532Z" fill="white"/>
</svg>
