<svg width="206" height="79" viewBox="0 0 206 79" fill="none" xmlns="http://www.w3.org/2000/svg">
<path d="M67.08 45H68.4V32.04H73.24V30.84H62.24V32.04H67.08V45ZM75.4244 45H76.7444V38.28H84.6644V45H85.9844V30.84H84.6644V37.08H76.7444V30.84H75.4244V45ZM92.998 45H94.318V38.9L99.518 30.84H98.038L93.658 37.56L89.378 30.84H87.798L92.998 38.9V45ZM111.922 41.96C110.922 43.48 109.162 44.16 107.742 44.16C104.042 44.16 101.742 41.44 101.742 37.92C101.742 34.4 104.042 31.68 107.742 31.68C109.162 31.68 110.662 32.28 111.542 33.6L112.622 32.7C111.382 31.12 109.662 30.48 107.742 30.48C103.422 30.48 100.422 33.6 100.422 37.92C100.422 42.24 103.422 45.36 107.742 45.36C109.822 45.36 111.662 44.62 113.002 42.78L111.922 41.96ZM115.424 45H116.744V37.68H116.864L124.044 45H125.944L118.384 37.32L125.544 30.84H123.724L116.864 37.08H116.744V30.84H115.424V45ZM143.426 41.96C142.426 43.48 140.666 44.16 139.246 44.16C135.546 44.16 133.246 41.44 133.246 37.92C133.246 34.4 135.546 31.68 139.246 31.68C140.666 31.68 142.166 32.28 143.046 33.6L144.126 32.7C142.886 31.12 141.166 30.48 139.246 30.48C134.926 30.48 131.926 33.6 131.926 37.92C131.926 42.24 134.926 45.36 139.246 45.36C141.326 45.36 143.166 44.62 144.506 42.78L143.426 41.96ZM146.008 37.92C146.008 42.24 149.008 45.36 153.328 45.36C157.648 45.36 160.648 42.24 160.648 37.92C160.648 33.6 157.648 30.48 153.328 30.48C149.008 30.48 146.008 33.6 146.008 37.92ZM147.328 37.92C147.328 34.4 149.628 31.68 153.328 31.68C157.028 31.68 159.328 34.4 159.328 37.92C159.328 41.44 157.028 44.16 153.328 44.16C149.628 44.16 147.328 41.44 147.328 37.92ZM164.928 32.04H167.728C170.508 32.04 171.048 33.58 171.048 34.56C171.048 35.54 170.508 37.08 167.728 37.08H164.928V32.04ZM163.608 45H164.928V38.28H167.388L171.368 45H172.868L168.748 38.2C170.308 38 172.368 37.26 172.368 34.56C172.368 30.84 168.448 30.84 167.328 30.84H163.608V45ZM187.143 37.36H182.423V38.56H185.823V43.32C184.743 43.96 183.383 44.16 181.863 44.16C178.163 44.16 175.863 41.44 175.863 37.92C175.863 34.4 178.163 31.68 181.863 31.68C183.403 31.68 185.143 32.4 186.003 33.44L186.963 32.44C185.663 31.12 183.963 30.48 181.863 30.48C177.543 30.48 174.543 33.6 174.543 37.92C174.543 42.24 177.543 45.36 181.863 45.36C183.703 45.36 185.503 45.02 187.143 44.08V37.36ZM191.03 45H192.35V30.84H191.03V45ZM195.345 43.22C196.445 44.76 198.085 45.36 199.945 45.36C202.245 45.36 204.345 43.94 204.345 41.38C204.345 36.06 197.045 38.62 197.045 34.36C197.045 32.56 198.525 31.68 200.225 31.68C201.445 31.68 202.325 32.16 202.985 33.08L204.125 32.26C203.165 31 201.805 30.48 200.265 30.48C197.885 30.48 195.725 31.84 195.725 34.36C195.725 39.74 203.025 37.42 203.025 41.38C203.025 43.08 201.625 44.16 199.845 44.16C198.445 44.16 197.305 43.56 196.605 42.38L195.345 43.22Z" fill="#F4B670"/>
<path d="M55.358 21H58.522C59.866 21 61.84 20.51 61.84 18.228C61.84 16.842 60.93 15.89 59.628 15.792V15.764C60.804 15.526 61.406 14.714 61.406 13.706C61.406 11.466 59.726 11.088 58.214 11.088H55.358V21ZM56.282 11.928H58.326C59.502 11.928 60.482 12.32 60.482 13.706C60.482 14.322 60.118 15.372 58.2 15.372H56.282V11.928ZM56.282 16.212H58.536C59.712 16.212 60.916 16.786 60.916 18.256C60.916 18.956 60.566 20.16 58.396 20.16H56.282V16.212ZM63.9384 21H64.7784V17.472C64.7784 16.212 65.4364 15.204 66.8924 15.204C66.9764 15.204 67.0884 15.218 67.2144 15.26L67.3124 14.434C67.1444 14.392 66.9904 14.364 66.8224 14.364C65.8564 14.364 65.1844 14.91 64.7644 15.666C64.7364 15.54 64.7224 15.008 64.7084 14.532H63.8684C63.8684 14.868 63.9384 15.876 63.9384 16.352V21ZM67.9904 17.766C67.9904 19.74 69.4044 21.168 71.3924 21.168C73.3804 21.168 74.7944 19.74 74.7944 17.766C74.7944 15.792 73.3804 14.364 71.3924 14.364C69.4044 14.364 67.9904 15.792 67.9904 17.766ZM68.8304 17.766C68.8304 16.31 69.8104 15.12 71.3924 15.12C72.9744 15.12 73.9544 16.31 73.9544 17.766C73.9544 19.222 72.9744 20.412 71.3924 20.412C69.8104 20.412 68.8304 19.222 68.8304 17.766ZM82.1409 14.532H81.3009V17.766C81.3009 19.544 80.3069 20.412 79.0609 20.412C77.7309 20.412 77.4369 19.39 77.4369 18.34V14.532H76.5969V18.382C76.5969 19.796 77.0449 21.168 79.0609 21.168C80.1109 21.168 80.9369 20.58 81.2729 19.866H81.3149C81.3429 19.992 81.3569 20.524 81.3709 21H82.2109C82.2109 20.664 82.1409 19.656 82.1409 19.18V14.532ZM90.9422 14.532H90.1022V15.624H90.0742C89.5842 14.854 88.7302 14.364 87.6242 14.364C85.7202 14.364 84.1662 15.862 84.1662 17.682C84.1662 19.502 85.7202 21 87.6242 21C88.7302 21 89.5842 20.51 90.0742 19.74H90.1022V20.636C90.1022 21.364 90.0602 23.604 87.4982 23.604C86.4902 23.604 85.5382 23.212 84.9502 22.386L84.2922 23.002C84.9502 23.856 86.1962 24.36 87.4982 24.36C88.8142 24.36 90.9422 23.8 90.9422 20.58V14.532ZM90.1302 17.682C90.1302 19.096 88.9822 20.244 87.5682 20.244C86.1542 20.244 85.0062 19.096 85.0062 17.682C85.0062 16.268 86.1542 15.12 87.5682 15.12C88.9822 15.12 90.1302 16.268 90.1302 17.682ZM93.0048 21H93.8448V17.766C93.8448 15.988 94.8388 15.12 96.0848 15.12C97.4148 15.12 97.7088 16.142 97.7088 17.192V21H98.5488V17.15C98.5488 15.736 98.1008 14.364 96.0848 14.364C95.0348 14.364 94.2088 14.952 93.8728 15.666H93.8448V10.416H93.0048V21ZM103.948 14.532H102.1V12.67H101.26V14.532H99.8601V15.288H101.26V19.502C101.26 20.426 101.722 21.168 102.926 21.168C103.248 21.168 103.71 21.056 104.018 20.944L103.948 20.188C103.654 20.314 103.318 20.412 102.996 20.412C102.436 20.412 102.1 20.076 102.1 19.502V15.288H103.948V14.532ZM112.247 14.532H110.399V12.67H109.559V14.532H108.159V15.288H109.559V19.502C109.559 20.426 110.021 21.168 111.225 21.168C111.547 21.168 112.009 21.056 112.317 20.944L112.247 20.188C111.953 20.314 111.617 20.412 111.295 20.412C110.735 20.412 110.399 20.076 110.399 19.502V15.288H112.247V14.532ZM113.381 17.766C113.381 19.74 114.795 21.168 116.783 21.168C118.771 21.168 120.185 19.74 120.185 17.766C120.185 15.792 118.771 14.364 116.783 14.364C114.795 14.364 113.381 15.792 113.381 17.766ZM114.221 17.766C114.221 16.31 115.201 15.12 116.783 15.12C118.365 15.12 119.345 16.31 119.345 17.766C119.345 19.222 118.365 20.412 116.783 20.412C115.201 20.412 114.221 19.222 114.221 17.766ZM130.846 14.532H129.95L127.864 19.978L125.722 14.532H124.784L127.416 21.028L126.828 22.526C126.632 23.03 126.366 23.604 125.75 23.604C125.498 23.604 125.232 23.52 124.994 23.45L124.91 24.234C125.176 24.304 125.456 24.36 125.736 24.36C126.66 24.36 127.192 23.828 127.514 23.002L130.846 14.532ZM131.811 17.766C131.811 19.74 133.225 21.168 135.213 21.168C137.201 21.168 138.615 19.74 138.615 17.766C138.615 15.792 137.201 14.364 135.213 14.364C133.225 14.364 131.811 15.792 131.811 17.766ZM132.651 17.766C132.651 16.31 133.631 15.12 135.213 15.12C136.795 15.12 137.775 16.31 137.775 17.766C137.775 19.222 136.795 20.412 135.213 20.412C133.631 20.412 132.651 19.222 132.651 17.766ZM145.961 14.532H145.121V17.766C145.121 19.544 144.127 20.412 142.881 20.412C141.551 20.412 141.257 19.39 141.257 18.34V14.532H140.417V18.382C140.417 19.796 140.865 21.168 142.881 21.168C143.931 21.168 144.757 20.58 145.093 19.866H145.135C145.163 19.992 145.177 20.524 145.191 21H146.031C146.031 20.664 145.961 19.656 145.961 19.18V14.532ZM151.721 21H152.561V19.866H152.589C153.107 20.762 154.213 21.168 155.179 21.168C157.167 21.168 158.581 19.74 158.581 17.766C158.581 15.792 157.167 14.364 155.179 14.364C154.213 14.364 153.107 14.77 152.589 15.666H152.561V10.416H151.721V21ZM152.477 17.766C152.477 16.31 153.653 15.12 155.179 15.12C156.761 15.12 157.741 16.31 157.741 17.766C157.741 19.222 156.761 20.412 155.179 20.412C153.653 20.412 152.477 19.222 152.477 17.766ZM165.614 14.532H164.718L162.632 19.978L160.49 14.532H159.552L162.184 21.028L161.596 22.526C161.4 23.03 161.134 23.604 160.518 23.604C160.266 23.604 160 23.52 159.762 23.45L159.678 24.234C159.944 24.304 160.224 24.36 160.504 24.36C161.428 24.36 161.96 23.828 162.282 23.002L165.614 14.532ZM166.97 15.12C166.97 15.498 167.264 15.792 167.642 15.792C168.02 15.792 168.314 15.498 168.314 15.12C168.314 14.742 168.02 14.448 167.642 14.448C167.264 14.448 166.97 14.742 166.97 15.12ZM166.97 20.412C166.97 20.79 167.264 21.084 167.642 21.084C168.02 21.084 168.314 20.79 168.314 20.412C168.314 20.034 168.02 19.74 167.642 19.74C167.264 19.74 166.97 20.034 166.97 20.412Z" fill="white"/>
<path d="M23.1398 26.4236C22.5376 26.1347 21.8226 26.2431 21.5403 26.3333L22.7634 27.507L23.9866 28.7708L24.7392 28.8611L23.8925 29.7639L23.1398 33.1042L22.8575 34.6389L23.5161 34.5486L24.6452 34.007L25.2097 33.5556L25.4919 32.8333L25.7742 31.6597L26.2446 30.3958L26.621 29.5833L26.9973 29.0417L27.1855 29.132L27.0914 30.125L26.9032 30.9375V33.7361L27.3736 34.5486L27.9382 35.2708L29.1613 35.9931L26.9973 39.9653L26.8091 40.4167C26.8405 40.5671 26.8656 40.9583 26.715 41.3195C26.5269 41.7708 25.6801 41.6806 25.586 41.7708C25.5107 41.8431 24.8647 41.9816 24.5511 42.0417C24.3943 42.0718 23.9677 42.1681 23.5161 42.3125C23.0645 42.457 22.8261 42.9143 22.7634 43.125C22.7321 43.3357 22.6882 43.7931 22.7634 43.9375C22.8387 44.082 23.2339 44.4792 23.422 44.6597L24.7392 44.4792L26.1505 44.8403L27.9382 45.2014L31.4193 45.7431L34.6183 45.382L33.6774 42.9445L34.2419 41.7708C34.3674 41.4399 34.9758 40.9042 35.2769 40.3264C35.5779 39.7486 36.1236 38.9421 36.4059 38.7014L36.7823 37.5278L37.8172 36.0833L39.2285 35.0903L41.7688 34.8195L44.0269 35.3611L45.6263 36.8958L46.4731 35.0903L47.9785 34.007L49.9543 33.8264L52.2124 34.8195L51.4597 33.5556L49.3898 31.4792L46.0027 29.4931L40.8279 29.132L37.2527 30.125L33.6774 31.4792C33.5833 31.4792 33.0188 31.0278 32.9247 30.8472C32.8306 30.6667 32.4543 30.1551 32.5484 29.9445L33.3952 27.5972L34.7124 25.4306L36.4059 23.5347V22.632L33.9597 24.1667L32.5484 25.7917L31.3253 26.6042H29.1613C29.0107 26.6042 26.715 27.3866 25.586 27.7778C25.0215 27.4468 23.7419 26.7125 23.1398 26.4236Z" fill="#F4B670"/>
<path d="M21.2581 30.3958C21.1013 29.794 20.7876 28.193 20.7876 26.6042H21.5403L23.2339 27.7778L24.2688 29.1319L22.6693 32.6528L21.8226 31.6597L21.2581 30.3958Z" fill="#FFF7F1"/>
<path d="M27.0914 30.125V29.132H26.9973L26.621 29.5833L26.1505 30.4861L25.3978 33.1945L25.0215 33.7361C24.8647 33.8565 24.4946 34.1153 24.2688 34.1875L23.422 34.6389L22.8575 34.4583L20.7876 35.3611L20.0349 37.4375L20.7876 38.9722L23.422 40.3264H25.8683L26.9032 39.9653L27.6559 38.5208L28.9731 36.0833L27.6559 34.9097L26.9032 33.7361L26.7151 32.0208L27.0914 30.125Z" fill="#FFF7F1"/>
<path d="M35.371 24.5278L37.1586 22.5417L37.9113 23.5347V25.0694L37.629 29.0417L37.2527 29.9444C36.5 30.3055 34.957 31.1722 34.0538 31.3889C33.5833 31.4792 33.3011 31.3889 32.9247 31.118C32.6765 30.9394 32.517 30.3657 32.5484 30.125L33.5833 27.1458L35.371 24.5278Z" fill="#FFF7F1"/>
<path d="M43.2742 35.0903L45.7204 36.8958L46.0968 35.9931C46.3476 35.4213 46.9624 34.2236 47.414 34.0069C47.9785 33.7361 48.543 33.8264 49.578 33.7361C50.4059 33.6639 51.3656 34.1875 51.7419 34.4583C51.9615 34.6991 52.5134 35.3611 52.9651 36.0833C53.4167 36.8056 53.5296 38.3704 53.5296 39.0625L52.9651 42.9444L53.3414 44.5694L52.7769 46.1042L50.8952 46.6458L49.3898 45.2014L48.4489 45.6528L47.6962 45.9236L46.4731 45.6528L46.0027 45.2014L45.4382 45.6528L44.6855 45.9236L43.8387 46.1042L43.5565 46.5556L42.8979 47.3681L41.2984 47.1875L39.8871 46.375H36.0296L33.9597 43.9375L34.336 41.6806C34.9977 40.0483 35.4495 39.22 36.6882 38.1597L38.0995 36.2639L39.1344 35.4514L41.1102 34.9097L43.2742 35.0903Z" fill="#FFF7F1"/>
<path d="M42.0109 45.4188C42.4658 45.2397 42.6681 44.7051 42.4627 44.2248C42.2573 43.7444 41.722 43.5002 41.2671 43.6793C40.8122 43.8583 40.6099 44.3929 40.8153 44.8733C41.0207 45.3536 41.5559 45.5979 42.0109 45.4188Z" fill="#FFA2A2"/>
<path d="M51.3399 44.7115C51.7948 44.5325 51.9971 43.9979 51.7917 43.5175C51.5863 43.0372 51.0511 42.7929 50.5961 42.972C50.1412 43.1511 49.9389 43.6857 50.1443 44.166C50.3497 44.6464 50.885 44.8906 51.3399 44.7115Z" fill="#FFA2A2"/>
<path d="M41.4012 46.294C41.5638 46.2158 41.6295 46.026 41.548 45.87C41.4665 45.7139 41.2686 45.6509 41.106 45.7291C40.9434 45.8073 40.8777 45.9972 40.9592 46.1532C41.0407 46.3092 41.2386 46.3722 41.4012 46.294Z" fill="#FFA2A2"/>
<path d="M42.285 46.6374C42.4476 46.5592 42.5133 46.3693 42.4318 46.2133C42.3503 46.0573 42.1525 45.9943 41.9899 46.0725C41.8273 46.1507 41.7616 46.3405 41.8431 46.4965C41.9246 46.6525 42.1225 46.7156 42.285 46.6374Z" fill="#FFA2A2"/>
<path d="M42.982 45.9439C43.1446 45.8657 43.2103 45.6758 43.1288 45.5198C43.0473 45.3638 42.8494 45.3008 42.6868 45.379C42.5243 45.4572 42.4585 45.647 42.54 45.803C42.6215 45.959 42.8194 46.0221 42.982 45.9439Z" fill="#FFA2A2"/>
<path d="M50.6636 45.518C50.8262 45.4398 50.8919 45.2499 50.8104 45.0939C50.7289 44.9379 50.531 44.8749 50.3684 44.9531C50.2058 45.0313 50.1401 45.2211 50.2216 45.3771C50.3031 45.5331 50.501 45.5962 50.6636 45.518Z" fill="#FFA2A2"/>
<path d="M51.6411 45.6588C51.8037 45.5806 51.8694 45.3908 51.7879 45.2348C51.7064 45.0788 51.5085 45.0157 51.346 45.0939C51.1834 45.1721 51.1176 45.362 51.1992 45.518C51.2807 45.674 51.4785 45.737 51.6411 45.6588Z" fill="#FFA2A2"/>
<path d="M52.36 45.0939C52.5225 45.0157 52.5883 44.8258 52.5068 44.6698C52.4253 44.5138 52.2274 44.4507 52.0648 44.5289C51.9022 44.6071 51.8365 44.797 51.918 44.953C51.9995 45.109 52.1974 45.1721 52.36 45.0939Z" fill="#FFA2A2"/>
<path d="M36.9727 22.1259C36.3758 22.2143 35.1339 22.86 34.2166 23.5712C33.5155 24.1093 32.5941 25.0587 31.857 26.0005C31.6127 26.3041 31.5966 26.3195 31.4765 26.2926C30.9156 26.1773 29.87 26.1619 29.2331 26.258C28.0794 26.431 26.9617 26.8115 25.9161 27.3843C25.808 27.4458 25.804 27.4419 25.5956 27.2497C25.179 26.8615 24.7664 26.6501 23.805 26.3349C22.8675 26.0235 22.2827 25.9159 21.5776 25.9121C21.0769 25.9082 21.0007 25.9159 20.8565 25.9928C20.2036 26.3311 20.0553 27.1306 20.3558 28.7181C20.6723 30.3863 21.2732 31.6164 22.2626 32.6158C22.507 32.8656 22.507 32.8656 22.5391 33.1501C22.5631 33.4076 22.6312 33.8189 22.6993 34.1379C22.7273 34.2533 22.7273 34.2533 22.3307 34.4224C21.826 34.6338 21.5175 34.7299 20.5561 34.9644C20.1274 35.072 19.6988 35.1835 19.6027 35.2181C19.2381 35.3487 19.1139 35.5948 19.1139 36.1829C19.1139 37.1938 19.4184 38.1778 19.9271 38.8236C20.7083 39.8153 22.0423 40.5033 23.4204 40.6303C23.5766 40.6456 23.7569 40.6687 23.821 40.6801C24.0253 40.7225 25.4074 40.7032 25.6798 40.6532C25.9722 40.5994 26.3848 40.4687 26.517 40.388C26.5651 40.3573 26.6172 40.3381 26.6252 40.3497C26.6452 40.3688 26.5731 40.9685 26.533 41.1107C26.509 41.1914 26.4329 41.2299 26.0243 41.3682C25.7318 41.4643 25.3072 41.5719 24.9427 41.6334C24.1895 41.7604 23.5366 41.9256 23.2481 42.0639C22.6833 42.3291 22.3468 42.8711 22.3548 43.5092C22.3628 44.1742 22.6953 44.8007 23.164 45.0315C23.5966 45.2467 24.2296 45.2812 24.5821 45.1044L24.7824 45.0084L25.0308 45.1198C25.3232 45.2467 25.4514 45.2543 26.1124 45.1852L26.6011 45.1351L26.7854 45.2543C27.186 45.508 28.4559 45.8194 29.7939 45.9886C31.5886 46.2192 33.4835 46.1692 34.4649 45.8695L34.7293 45.7887L34.9857 46C35.9632 46.8073 36.9647 47.1416 38.2827 47.0956C38.9797 47.0687 39.2001 47.0109 39.5806 46.7572L39.8771 46.5574L40.0574 46.765C40.7182 47.5223 41.3753 47.8951 42.1085 47.9411C43.0138 47.9989 43.7267 47.4954 44.0754 46.5498L44.1435 46.3575H44.4999C44.9967 46.3537 45.3653 46.1999 45.8341 45.8079L46.0343 45.6387L46.1865 45.7541C46.5311 46.0155 46.9556 46.1654 47.5205 46.223C48.1134 46.2808 48.7504 46.1538 48.9867 45.9271L49.1149 45.8041L49.3072 46.0231C49.8401 46.6343 50.4849 46.9764 51.194 47.0187C52.1154 47.0803 52.9728 46.5229 53.3653 45.6196C53.5655 45.1582 53.6176 44.8585 53.5935 44.2627C53.5775 43.836 53.5536 43.686 53.4654 43.417C53.4054 43.2364 53.3532 43.0365 53.3532 42.975C53.3532 42.9096 53.4093 42.6675 53.4774 42.4367C53.866 41.1223 54.0062 39.4425 53.8461 38.0548C53.6857 36.6672 53.1971 35.1796 52.5161 34.0188C52.0392 33.2077 51.5306 32.5735 50.7653 31.8431C47.7689 28.9795 43.0258 28.007 38.2547 29.287C37.9261 29.3754 37.9021 29.3754 37.9021 29.31C37.9021 29.2716 37.9903 29.0102 38.0944 28.7296C38.3548 28.0416 38.4069 27.8417 38.4869 27.2536C38.5351 26.9076 38.555 26.4733 38.5592 25.8313C38.5592 24.7666 38.4989 24.3476 38.2225 23.5404C38.0663 23.0791 37.7579 22.4411 37.6297 22.3027C37.4855 22.1451 37.2531 22.0836 36.9727 22.1259ZM37.3813 23.6096C37.5295 24.1208 37.5776 24.3591 37.6177 24.8435C37.6537 25.2548 37.6177 26.4848 37.5416 27.3881C37.4695 28.2069 37.2211 29.5407 37.1289 29.6099C37.1009 29.6291 36.8846 29.7175 36.6402 29.8059C36.0033 30.0442 34.7654 30.6362 34.1365 31.0013C33.84 31.1743 33.5315 31.355 33.4554 31.3973C33.2311 31.5241 32.3097 32.1891 31.8931 32.5197C31.3883 32.9271 30.2266 34.038 29.814 34.5185C29.6297 34.7299 29.3533 35.072 29.193 35.2757C29.0368 35.4833 28.8886 35.6486 28.8645 35.6524C28.8125 35.6524 28.1835 35.1796 27.9352 34.9451C27.5826 34.6223 27.2181 33.965 27.1019 33.4576C26.9737 32.8695 26.9977 31.9969 27.186 30.6938C27.3102 29.8097 27.3262 29.6829 27.3262 29.4215C27.3262 29.0679 27.2541 28.9257 27.0739 28.9257C26.8455 28.9257 26.5771 29.3216 26.1485 30.2787C25.9081 30.8207 25.7198 31.4088 25.5195 32.2506C25.2992 33.1731 25.195 33.4307 24.9427 33.6767C24.8345 33.7804 24.6182 33.9381 24.4619 34.0188C24.1695 34.1764 23.4564 34.4224 23.2962 34.4224C23.2121 34.4224 23.2041 34.4147 23.2441 34.3186C23.2641 34.2609 23.3162 34.0265 23.3603 33.7958C23.4364 33.3576 23.5205 33.1731 23.5205 33.4345C23.5205 33.5921 23.6087 33.8227 23.7088 33.9304C23.7809 34.0111 23.9972 34.0572 24.1174 34.0188C24.2416 33.9842 24.3097 33.8612 24.4018 33.5344C24.51 33.1501 24.51 32.6773 24.4018 32.512C24.2697 32.3006 23.9291 32.2929 23.7048 32.4928L23.5886 32.5965L23.6167 32.3851C23.7128 31.6279 24.1495 30.4786 24.5861 29.8174C25.6437 28.2222 27.9352 27.119 30.6632 26.8846C30.9477 26.8615 31.188 26.85 31.196 26.8615C31.2041 26.8692 31.132 27.0422 31.0318 27.242C30.8074 27.6803 30.7594 27.9724 30.8796 28.1146C30.9477 28.1915 30.9677 28.1992 31.0438 28.1607C31.0959 28.1338 31.2361 27.9647 31.3563 27.7802C31.849 27.046 32.2897 26.4387 32.5982 26.0658C33.2711 25.2663 34.1044 24.4668 34.7694 23.994C35.158 23.7134 36.0153 23.2022 36.0954 23.1983C36.1234 23.1983 35.9992 23.3559 35.815 23.5443C35.3102 24.067 35.0819 24.3246 34.6973 24.8166C34.0844 25.6046 33.7479 26.2042 33.2431 27.4266C32.7303 28.6681 32.5781 29.1486 32.478 29.7905C32.4219 30.1595 32.4419 30.271 32.5701 30.271C32.6783 30.271 32.7143 30.2095 32.8145 29.8482C33.0628 28.9487 33.6517 27.6726 34.2887 26.6578C34.9296 25.6315 35.4624 24.9165 36.3317 23.921C36.6122 23.5981 36.8966 23.2637 36.9607 23.1791C37.0288 23.0945 37.0969 23.0138 37.1209 22.9984C37.169 22.9638 37.2411 23.1291 37.3813 23.6096ZM22.5431 26.7731C23.2081 26.9038 24.2296 27.2267 24.7744 27.4727C25.0548 27.6034 25.2832 27.7187 25.2832 27.7302C25.2832 27.7456 25.1109 27.8917 24.8986 28.0608C24.6863 28.2261 24.466 28.4221 24.4059 28.4913C24.3498 28.5605 24.2817 28.6181 24.2576 28.6181C24.2336 28.6181 24.1254 28.5105 24.0173 28.376C23.5846 27.8494 22.5631 26.9576 22.2106 26.8C22.1585 26.7769 22.1184 26.7462 22.1184 26.727C22.1184 26.6885 22.0864 26.6847 22.5431 26.7731ZM22.1825 27.5419C22.8235 27.9916 23.4685 28.5221 23.7368 28.8257L23.9291 29.041L23.7288 29.3216C23.2401 30.0019 22.7794 31.1282 22.6592 31.9431C22.6112 32.2429 22.5831 32.266 22.4669 32.093C22.1024 31.5356 21.5936 30.2556 21.3172 29.2024C21.0889 28.3183 20.9887 27.7687 20.9807 27.3497C20.9727 26.7731 20.9727 26.7769 21.3373 26.9883C21.5015 27.0845 21.8821 27.3343 22.1825 27.5419ZM26.8655 30.0096C26.6492 31.0705 26.6052 31.3819 26.5771 32.1237C26.5411 33.0886 26.6292 33.6305 26.9176 34.2379C27.2261 34.8875 27.6627 35.3718 28.2877 35.7524C28.488 35.8715 28.6482 35.9868 28.6482 36.006C28.6482 36.0291 28.6162 36.0906 28.5721 36.1444C28.0673 36.8402 27.3463 38.2662 26.9657 39.3156C26.8575 39.6116 26.8415 39.6347 26.6572 39.7346C26.1845 39.9921 25.9842 40.0421 25.3833 40.0383C24.9106 40.0383 24.2416 39.9729 24.1895 39.9229C24.1695 39.9037 24.2536 39.8384 24.3698 39.7769C24.486 39.7115 24.6783 39.577 24.7944 39.477C24.9747 39.3195 25.0068 39.2772 24.9947 39.1734C24.9787 39.0043 24.8545 39.0004 24.6142 39.1619C24.2376 39.4232 23.5766 39.65 23.192 39.65C22.7113 39.65 21.6818 39.1388 21.1009 38.616C20.8686 38.4046 20.6362 38.1317 20.6362 38.0702C20.6362 38.0548 20.7003 38.0087 20.7764 37.9741C21.3092 37.7319 21.6938 37.0324 21.6217 36.4327C21.5936 36.1906 21.4654 35.8484 21.3533 35.7139C21.3052 35.6563 21.2772 35.5909 21.2892 35.564C21.3012 35.5371 21.4294 35.4756 21.5776 35.4256C21.9342 35.3065 22.3548 35.1066 22.6472 34.9221C22.8115 34.8145 22.9276 34.7683 23.0238 34.7683C23.2401 34.7683 23.7088 34.6568 24.0413 34.5262C24.4099 34.3839 24.7023 34.2033 25.0108 33.9304C25.3473 33.6305 25.4795 33.3423 25.7439 32.3198C26.0123 31.2858 26.1445 30.9014 26.4489 30.221C26.7494 29.5637 26.9417 29.2332 26.9937 29.287C27.0058 29.2947 26.9457 29.6214 26.8655 30.0096ZM44.0713 29.7098C46.0623 29.9981 47.7088 30.64 49.1751 31.6932C49.6397 32.0277 50.4208 32.7388 50.7774 33.1501C51.0577 33.4806 51.4345 33.9726 51.4704 34.0649C51.4864 34.1033 51.3543 34.0534 51.118 33.9304C50.6613 33.6959 50.1325 33.5229 49.6798 33.4576C49.255 33.3999 48.5701 33.4345 48.1215 33.5383C47.0318 33.792 46.1344 34.6684 45.7099 35.8946C45.6418 36.0906 45.5776 36.2559 45.5736 36.2636C45.5656 36.2674 45.4254 36.1483 45.265 35.9907C44.5921 35.3372 43.6667 34.8875 42.4289 34.6069C42.1004 34.5339 41.9321 34.5223 41.187 34.5223C40.4219 34.5185 40.2856 34.53 39.9652 34.6069C39.5245 34.7145 38.8194 35.0374 38.4429 35.3103C37.7579 35.8023 37.1049 36.6057 36.6442 37.5128C36.2716 38.2547 36.2035 38.4584 36.2035 38.9005C36.2035 39.1734 36.2236 39.3233 36.2676 39.4194C36.3438 39.577 36.3518 39.5655 36.4399 39.1542C36.5561 38.6083 36.7964 38.1317 37.3533 37.3283C38.0184 36.3674 39.0117 35.5909 39.9332 35.3065C41.139 34.9336 42.8015 35.1642 44.0513 35.8754C44.464 36.1098 45.0088 36.6211 45.205 36.9632C45.4054 37.3091 45.5176 37.4014 45.7259 37.3975C45.9861 37.3898 46.0663 37.2668 46.2466 36.5865C46.6312 35.1335 47.3842 34.3263 48.5421 34.1341C49.7639 33.9304 50.9377 34.3071 51.9952 35.2488C52.2716 35.4948 52.3798 35.6639 52.54 36.1329C52.9647 37.3514 53.1449 38.7467 53.0527 40.0845C53.0087 40.7339 52.8525 41.7526 52.7645 41.9718L52.7202 42.0832L52.552 41.9294C52.0193 41.4336 51.3182 41.1837 50.5971 41.2375C50.2046 41.2644 49.9562 41.3451 49.6478 41.5374C48.6542 42.1639 48.2575 43.6284 48.7223 44.9661C48.7865 45.1545 48.8384 45.3197 48.8384 45.335C48.8384 45.4043 48.1375 45.5696 47.853 45.5696C47.2802 45.5696 46.6953 45.3466 46.4349 45.0315C46.2146 44.7663 45.8981 44.7892 45.7338 45.0853C45.5016 45.508 44.7884 45.9462 44.3878 45.9079L44.2516 45.8964L44.2277 45.4119C44.1595 44.0359 43.3382 42.7059 42.2327 42.1755L41.8667 42.0041L41.6034 41.9514H41.2984C40.6654 41.9592 40.6061 42.0178 40.3577 42.1408C39.7249 42.4561 39.2881 43.1711 39.204 44.0397C39.156 44.5433 39.2881 45.2852 39.5326 45.8695C39.5966 46.0269 39.6206 46.1269 39.5966 46.15C39.5446 46.1999 38.8034 46.2423 38.0422 46.2383C36.9927 46.2345 36.3798 46.0193 35.5906 45.3774C35.0779 44.9546 34.9016 44.7085 34.529 43.8783C34.2526 43.2633 34.1845 42.6828 34.3367 42.2215C34.4209 41.9602 34.6973 41.4912 34.9056 41.2568C34.9737 41.1761 35.0218 41.0992 35.0058 41.0876C34.9577 41.0416 34.6252 41.1877 34.4289 41.3413C33.9922 41.6719 33.6838 42.1793 33.5596 42.7713C33.4194 43.4285 33.5436 44.0782 33.9602 44.8815L34.0924 45.1391L33.9642 45.166C33.8921 45.1776 33.2471 45.2005 32.53 45.2121C30.9316 45.2352 30.2546 45.1851 27.4865 44.8354C27.2982 44.8123 27.0819 44.7701 27.0058 44.7431C26.9296 44.7125 26.7093 44.6816 26.521 44.67C25.9161 44.6355 25.5035 44.501 25.2231 44.2473C24.9947 44.0397 24.8666 44.0319 24.514 44.2204C24.1735 44.3972 23.9852 44.4203 23.6808 44.3087C23.4524 44.2242 23.3483 44.0704 23.2561 43.7015C23.196 43.4554 23.192 43.3863 23.2361 43.2324C23.3002 43.0019 23.4324 42.8367 23.6567 42.7097C23.7569 42.6521 24.2496 42.4945 24.7504 42.356C26.0523 42.0025 26.5531 41.8142 27.2261 41.4258C27.5906 41.2183 28.0954 40.8417 28.0754 40.7917C28.0473 40.711 27.6828 40.7455 27.4064 40.8531C27.2661 40.9069 27.146 40.9493 27.138 40.9416C27.1299 40.9378 27.2261 40.6379 27.3503 40.2804C27.8911 38.7006 28.508 37.5244 29.5576 36.0752C29.9862 35.4833 30.9997 34.3839 31.6207 33.8381C34.2646 31.5087 37.4975 30.0404 40.7463 29.6944C40.9546 29.6752 41.183 29.6483 41.2472 29.6406C41.5517 29.5983 43.6707 29.6522 44.0713 29.7098ZM51.3423 41.9909C51.811 42.2024 52.1875 42.5752 52.4559 43.0903C52.9125 43.9781 52.8043 45.2005 52.2116 45.7848C51.9753 46.0231 51.6708 46.1461 51.3302 46.1461C51.1819 46.1461 50.9778 46.1192 50.8775 46.0885C50.1325 45.8386 49.5076 44.9239 49.4154 43.9436C49.3873 43.6362 49.4474 43.1864 49.5475 42.9174C49.86 42.0986 50.6692 41.6835 51.3423 41.9909ZM41.496 42.5324C41.6145 42.579 41.7586 42.5745 41.9365 42.7014C42.7298 43.2676 43.4023 44.2434 43.4584 45.4043C43.4945 46.1038 43.3743 46.4998 43.0017 46.8804C42.8094 47.0803 42.4929 47.2224 42.2566 47.2224C41.9161 47.2224 41.4595 47.0265 41.1189 46.7419C40.7625 46.4422 40.3176 45.7463 40.1535 45.2158C39.7768 44.0359 40.1093 42.9134 40.9226 42.6137C41.1429 42.529 41.3804 42.51 41.496 42.5324Z" fill="#3F2410"/>
<path d="M29.2972 32.1391C29.141 32.216 29.0568 32.3198 28.8926 32.658C28.6763 33.0962 28.7404 33.6075 29.0448 33.9073C29.2852 34.1379 29.5736 34.1302 29.814 33.8804C30.0103 33.6766 30.0904 33.4076 30.0984 32.9579C30.1024 32.3928 29.9502 32.1314 29.5816 32.093C29.4855 32.0815 29.3813 32.1007 29.2972 32.1391Z" fill="#3F2410"/>
</svg>
