<svg width="414" height="128" viewBox="0 0 414 128" fill="none" xmlns="http://www.w3.org/2000/svg">
<path d="M415 63L228 63" stroke="white" stroke-width="5" stroke-linecap="round"/>
<path d="M0 63L191.316 63C194.186 63 195.572 59.1724 193.481 57.2072C186.953 51.0725 177.731 40.9133 175.729 30.9341C172.559 15.127 179.806 8.12672 185.24 4.96525C190.675 1.80377 201.605 1.57002 207 11.0208" stroke="white" stroke-width="5" stroke-linecap="round"/>
<path d="M254.5 63H222.684C219.814 63 218.428 59.1724 220.519 57.2072C227.047 51.0725 236.269 40.9133 238.271 30.9341C241.441 15.127 234.194 8.12672 228.76 4.96525C223.325 1.80377 212.395 1.57002 207 11.0208" stroke="#892CDC" stroke-width="5" stroke-linecap="round"/>
<path d="M73.91 53H75.89V42.92H87.77V53H89.75V31.76H87.77V41.12H75.89V31.76H73.91V53ZM95.5604 53H109.03V51.2H97.5404V42.92H107.86V41.12H97.5404V33.56H108.55V31.76H95.5604V53ZM110.584 53H112.654L115.054 47.36H126.304L128.614 53H130.834L121.894 31.76H119.854L110.584 53ZM125.584 45.56H115.834L120.784 33.92L125.584 45.56ZM135.861 33.56H140.061C144.231 33.56 145.041 35.87 145.041 37.34C145.041 38.81 144.231 41.12 140.061 41.12H135.861V33.56ZM133.881 53H135.861V42.92H139.551L145.521 53H147.771L141.591 42.8C143.931 42.5 147.021 41.39 147.021 37.34C147.021 31.76 141.141 31.76 139.461 31.76H133.881V53ZM156.55 53H158.53V33.56H165.79V31.76H149.29V33.56H156.55V53Z" fill="#892CDC"/>
<path d="M250.91 53H252.89V42.92H264.77V53H266.75V31.76H264.77V41.12H252.89V31.76H250.91V53ZM272.56 53H286.03V51.2H274.54V42.92H284.86V41.12H274.54V33.56H285.55V31.76H272.56V53ZM287.584 53H289.654L292.054 47.36H303.304L305.614 53H307.834L298.894 31.76H296.854L287.584 53ZM302.584 45.56H292.834L297.784 33.92L302.584 45.56ZM312.861 33.56H317.061C321.231 33.56 322.041 35.87 322.041 37.34C322.041 38.81 321.231 41.12 317.061 41.12H312.861V33.56ZM310.881 53H312.861V42.92H316.551L322.521 53H324.771L318.591 42.8C320.931 42.5 324.021 41.39 324.021 37.34C324.021 31.76 318.141 31.76 316.461 31.76H310.881V53ZM333.55 53H335.53V33.56H342.79V31.76H326.29V33.56H333.55V53Z" fill="#892CDC"/>
<path d="M109.256 98.7251C109.256 99.4476 108.761 100.339 107.77 101.4C107.526 101.668 107.223 101.965 106.861 102.291C106.512 102.617 106.139 102.95 105.743 103.288C105.346 103.614 104.944 103.94 104.536 104.266C104.14 104.593 103.767 104.89 103.418 105.158C102.299 106.02 101.128 106.836 99.9041 107.605C98.6805 108.374 97.4452 109.05 96.1982 109.633C94.9513 110.216 93.7044 110.676 92.4574 111.014C91.2221 111.352 90.0276 111.521 88.8739 111.521C87.6153 111.521 86.5199 111.34 85.5876 110.979C84.6553 110.618 83.8803 110.105 83.2627 109.441C82.6567 108.776 82.2022 107.978 81.8992 107.046C81.5962 106.102 81.4447 105.053 81.4447 103.899C81.4331 102.85 81.538 101.784 81.7594 100.7C81.9924 99.6166 82.3129 98.5503 82.7208 97.5015C83.1287 96.4526 83.6181 95.4446 84.1892 94.4773C84.7602 93.4984 85.3837 92.5953 86.0596 91.7679C86.4674 91.2668 86.9278 90.7598 87.4405 90.2471C87.9533 89.7227 88.4894 89.2157 89.0487 88.7263C89.6198 88.2368 90.1966 87.7823 90.7793 87.3628C91.362 86.9316 91.933 86.5529 92.4924 86.2266C92.8536 86.0168 93.314 85.7721 93.8733 85.4924C94.4327 85.2127 95.0212 84.9505 95.6389 84.7058C96.2565 84.461 96.8683 84.2571 97.4743 84.0939C98.0803 83.9191 98.6047 83.8317 99.0476 83.8317C99.7584 83.8317 100.324 83.8842 100.743 83.9891C101.174 84.0823 101.553 84.2454 101.879 84.4785C102.031 84.5951 102.206 84.7757 102.404 85.0204C102.614 85.2535 102.806 85.5157 102.981 85.807C103.167 86.0867 103.319 86.3722 103.435 86.6636C103.563 86.9433 103.627 87.1822 103.627 87.3803C103.627 87.5784 103.534 87.8756 103.348 88.2718C103.161 88.668 102.946 89.0817 102.701 89.5129C102.456 89.9324 102.212 90.3286 101.967 90.7016C101.722 91.0628 101.536 91.3134 101.407 91.4532C100.93 91.9776 100.417 92.2398 99.8691 92.2398C99.403 92.2398 99.0359 92.1 98.7679 91.8203C98.5115 91.529 98.3833 91.1677 98.3833 90.7365C98.3833 90.585 98.4707 90.352 98.6455 90.0373C98.8203 89.711 99.1117 89.3439 99.5195 88.936C99.9274 88.5282 100.242 88.1552 100.463 87.8173C100.697 87.4677 100.842 87.2346 100.9 87.1181C100.667 86.9549 100.382 86.8267 100.044 86.7335C99.706 86.6403 99.3913 86.5937 99.1 86.5937C98.6805 86.5937 98.1619 86.6927 97.5442 86.8908C96.9266 87.0773 96.2915 87.322 95.6389 87.625C94.9979 87.928 94.3686 88.266 93.751 88.6389C93.145 89.0001 92.6322 89.3497 92.2127 89.6877C91.0124 90.6783 89.9053 91.7446 88.8914 92.8866C87.8775 94.0287 87.0385 95.2931 86.3742 96.6799C86.1062 97.2509 85.8498 97.8511 85.6051 98.4804C85.372 99.098 85.1681 99.7273 84.9933 100.368C84.8185 101.009 84.6786 101.65 84.5737 102.291C84.4805 102.92 84.4339 103.526 84.4339 104.109C84.4339 104.797 84.5096 105.438 84.6611 106.032C84.8243 106.626 85.0865 107.139 85.4478 107.57C85.809 108.001 86.281 108.339 86.8637 108.584C87.458 108.829 88.1864 108.951 89.0487 108.951C89.981 108.951 90.9366 108.823 91.9155 108.567C92.8944 108.31 93.8675 107.966 94.8348 107.535C95.8137 107.092 96.7809 106.591 97.7365 106.032C98.6921 105.461 99.6069 104.867 100.481 104.249C101.367 103.631 102.206 103.014 102.998 102.396C103.791 101.778 104.513 101.196 105.166 100.648C105.434 100.427 105.713 100.182 106.005 99.9138C106.308 99.6457 106.605 99.3777 106.896 99.1097C107.188 98.8416 107.467 98.5736 107.735 98.3056C108.015 98.0375 108.26 97.7928 108.47 97.5714C108.994 97.8394 109.256 98.224 109.256 98.7251ZM132.523 94.5822C132.523 94.7803 132.453 94.9959 132.313 95.229C132.173 95.4621 131.992 95.701 131.771 95.9457C131.55 96.1788 131.299 96.4118 131.019 96.6449C130.74 96.8663 130.46 97.0761 130.18 97.2742C129.901 97.4607 129.633 97.6297 129.376 97.7812C129.131 97.921 128.928 98.0259 128.764 98.0958C128.461 98.224 128.059 98.3405 127.558 98.4454C127.069 98.5386 126.556 98.6202 126.02 98.6901C125.484 98.7601 124.959 98.8183 124.447 98.8649C123.934 98.8999 123.503 98.9174 123.153 98.9174C123.013 98.9174 122.821 98.8941 122.576 98.8475C122.332 98.8008 122.081 98.7426 121.825 98.6727C121.568 98.6027 121.324 98.527 121.09 98.4454C120.869 98.3522 120.706 98.259 120.601 98.1657C120.706 98.6086 120.799 99.0572 120.881 99.5117C120.962 99.9546 121.003 100.415 121.003 100.893C121.003 101.102 120.974 101.359 120.916 101.662C120.869 101.965 120.799 102.274 120.706 102.588C120.624 102.891 120.531 103.188 120.426 103.48C120.321 103.759 120.211 103.993 120.094 104.179C119.791 104.692 119.476 105.158 119.15 105.577C118.835 105.997 118.474 106.387 118.066 106.749C117.67 107.098 117.221 107.43 116.72 107.745C116.219 108.06 115.642 108.363 114.99 108.654C114.291 108.957 113.585 109.173 112.875 109.301C112.175 109.417 111.447 109.476 110.69 109.476C110.212 109.476 109.786 109.336 109.413 109.056C109.041 108.776 108.726 108.403 108.47 107.937C108.213 107.46 108.015 106.912 107.875 106.294C107.747 105.676 107.683 105.03 107.683 104.354C107.683 104.179 107.695 103.963 107.718 103.707C107.753 103.451 107.794 103.188 107.84 102.92C107.899 102.652 107.957 102.396 108.015 102.151C108.073 101.907 108.132 101.697 108.19 101.522C108.353 101.033 108.586 100.473 108.889 99.8438C109.192 99.2146 109.547 98.5736 109.955 97.921C110.363 97.2567 110.818 96.61 111.319 95.9807C111.82 95.3397 112.344 94.7687 112.892 94.2676C113.44 93.7665 114.011 93.3644 114.605 93.0614C115.2 92.7584 115.794 92.6069 116.388 92.6069C116.586 92.6069 116.744 92.6361 116.86 92.6943C116.988 92.7526 117.093 92.8284 117.175 92.9216C117.268 93.0148 117.35 93.1139 117.42 93.2188C117.489 93.3236 117.571 93.4285 117.664 93.5334C117.699 93.5917 117.752 93.6208 117.822 93.6208C117.915 93.6208 118.031 93.5975 118.171 93.5509C118.311 93.5043 118.468 93.481 118.643 93.481C118.865 93.481 119.138 93.6266 119.465 93.918C119.791 94.1977 120.129 94.5123 120.479 94.8619C120.84 95.1999 121.195 95.5145 121.545 95.8059C121.906 96.0855 122.227 96.2254 122.506 96.2254C122.821 96.2254 123.159 96.2196 123.52 96.2079C123.881 96.1963 124.249 96.1788 124.621 96.1555C124.994 96.1205 125.361 96.0797 125.723 96.0331C126.084 95.9865 126.416 95.934 126.719 95.8758C126.801 95.8525 126.993 95.8 127.296 95.7185C127.599 95.6369 127.949 95.5437 128.345 95.4388C128.753 95.3222 129.178 95.1999 129.621 95.0717C130.075 94.9435 130.495 94.827 130.879 94.7221C131.264 94.6055 131.579 94.5123 131.823 94.4424C132.08 94.3725 132.22 94.3375 132.243 94.3375C132.313 94.3375 132.377 94.355 132.435 94.3899C132.494 94.4249 132.523 94.489 132.523 94.5822ZM118.888 97.3791C118.818 97.146 118.678 96.9188 118.468 96.6974C118.27 96.4759 118.037 96.2778 117.769 96.103C117.513 95.9282 117.239 95.7884 116.948 95.6835C116.656 95.567 116.382 95.5087 116.126 95.5087C115.916 95.5087 115.712 95.5437 115.514 95.6136C115.316 95.6835 115.118 95.7767 114.92 95.8933C114.733 95.9981 114.553 96.1205 114.378 96.2604C114.203 96.3885 114.04 96.5109 113.888 96.6274C113.434 97.012 112.997 97.5539 112.577 98.2531C112.17 98.9407 111.808 99.6865 111.494 100.491C111.191 101.283 110.946 102.076 110.759 102.868C110.573 103.66 110.48 104.348 110.48 104.931C110.48 105.187 110.521 105.438 110.602 105.682C110.695 105.915 110.824 106.125 110.987 106.312C111.15 106.486 111.342 106.632 111.564 106.749C111.785 106.854 112.03 106.906 112.298 106.906C112.997 106.906 113.644 106.784 114.238 106.539C114.832 106.282 115.368 105.939 115.846 105.508C116.336 105.065 116.767 104.54 117.14 103.934C117.513 103.328 117.827 102.676 118.084 101.976C118.34 101.266 118.532 100.52 118.661 99.739C118.8 98.9582 118.876 98.1715 118.888 97.3791ZM159.652 97.5015C159.652 97.7229 159.612 97.9501 159.53 98.1832C159.46 98.4046 159.367 98.6319 159.25 98.8649C159.145 99.0864 159.023 99.3078 158.883 99.5292C158.743 99.739 158.609 99.9429 158.481 100.141C158.143 100.665 157.747 101.201 157.292 101.749C156.838 102.285 156.349 102.81 155.824 103.322C155.311 103.835 154.781 104.319 154.233 104.773C153.686 105.228 153.15 105.63 152.625 105.979C152.206 106.259 151.804 106.521 151.419 106.766C151.046 107.011 150.667 107.221 150.283 107.395C149.898 107.57 149.496 107.71 149.077 107.815C148.657 107.92 148.197 107.972 147.696 107.972C146.728 107.972 145.942 107.728 145.336 107.238C145.033 106.993 144.765 106.679 144.532 106.294C144.31 105.898 144.112 105.461 143.937 104.983C143.774 104.505 143.629 103.998 143.5 103.462C143.384 102.926 143.285 102.396 143.203 101.872C143.098 101.219 142.999 100.636 142.906 100.124C142.813 99.5991 142.702 99.1621 142.574 98.8125C142.457 98.4512 142.312 98.1774 142.137 97.9909C141.962 97.7928 141.735 97.6938 141.455 97.6938C141.234 97.6938 141.024 97.7171 140.826 97.7637C140.628 97.8103 140.418 97.9035 140.197 98.0434C139.987 98.1832 139.754 98.3813 139.497 98.6377C139.241 98.8941 138.938 99.232 138.588 99.6516C138.25 100.071 137.86 100.584 137.417 101.19C136.974 101.796 136.456 102.518 135.861 103.357C135.57 103.765 135.226 104.214 134.83 104.703C134.434 105.193 134.026 105.659 133.606 106.102C133.199 106.545 132.797 106.935 132.4 107.273C132.004 107.611 131.654 107.827 131.351 107.92C130.326 107.698 129.813 106.422 129.813 104.092C129.813 103.474 129.883 102.536 130.023 101.277C130.093 100.706 130.174 100.112 130.268 99.4942C130.361 98.8649 130.477 98.2415 130.617 97.6238C130.757 96.9945 130.914 96.3885 131.089 95.8059C131.276 95.2115 131.491 94.6638 131.736 94.1627C131.853 93.9296 131.975 93.749 132.103 93.6208C132.231 93.481 132.36 93.3819 132.488 93.3236C132.628 93.2537 132.767 93.2129 132.907 93.2013C133.059 93.178 133.21 93.1663 133.362 93.1663C133.548 93.1663 133.711 93.2945 133.851 93.5509C134.003 93.8073 134.078 94.1627 134.078 94.6172C134.078 94.8969 134.055 95.1591 134.008 95.4038C133.962 95.6485 133.898 95.8991 133.816 96.1555C133.735 96.4118 133.647 96.6915 133.554 96.9945C133.461 97.2859 133.368 97.6238 133.274 98.0084C133.204 98.323 133.123 98.6727 133.03 99.0572C132.948 99.4418 132.866 99.8322 132.785 100.228C132.715 100.625 132.651 101.015 132.593 101.4C132.546 101.773 132.523 102.11 132.523 102.413C132.523 102.623 132.558 102.839 132.628 103.06C132.954 103.025 133.49 102.536 134.236 101.592C134.62 101.114 135.04 100.59 135.494 100.019C135.96 99.4476 136.462 98.8183 136.998 98.1308C137.394 97.618 137.784 97.1402 138.169 96.6974C138.565 96.2545 138.973 95.87 139.392 95.5437C139.812 95.2057 140.255 94.9435 140.721 94.757C141.199 94.5589 141.723 94.4599 142.294 94.4599C142.9 94.4599 143.401 94.5939 143.798 94.8619C144.205 95.1183 144.532 95.4796 144.776 95.9457C145.021 96.4002 145.208 96.9479 145.336 97.5889C145.476 98.2298 145.586 98.9349 145.668 99.704C145.738 100.357 145.802 101.003 145.86 101.644C145.93 102.285 146.058 102.862 146.245 103.375C146.431 103.876 146.699 104.284 147.049 104.599C147.399 104.913 147.9 105.071 148.552 105.071C149.053 105.071 149.578 104.954 150.125 104.721C150.673 104.488 151.25 104.167 151.856 103.759C152.462 103.34 153.086 102.85 153.726 102.291C154.379 101.732 155.049 101.12 155.737 100.456C156.005 100.199 156.296 99.8788 156.611 99.4942C156.937 99.098 157.252 98.7193 157.555 98.358C157.869 97.9967 158.161 97.6879 158.429 97.4315C158.697 97.1752 158.912 97.047 159.075 97.047C159.145 97.047 159.256 97.0819 159.408 97.1519C159.571 97.2218 159.652 97.3383 159.652 97.5015ZM168.882 97.5015C168.882 97.6063 168.83 97.7287 168.725 97.8686C168.62 97.9967 168.497 98.1249 168.358 98.2531C168.218 98.3697 168.072 98.4804 167.921 98.5853C167.781 98.6785 167.664 98.7484 167.571 98.795C167.548 98.8067 167.443 98.83 167.256 98.8649C167.082 98.8999 166.872 98.9349 166.627 98.9698C166.394 99.0048 166.161 99.0397 165.928 99.0747C165.695 99.1097 165.52 99.133 165.403 99.1446C164.681 99.2262 164.034 99.302 163.463 99.3719C162.892 99.4301 162.449 99.5234 162.135 99.6516C162.123 99.7564 162.1 99.9662 162.065 100.281C162.03 100.584 161.989 100.939 161.942 101.347C161.896 101.743 161.843 102.169 161.785 102.623C161.727 103.066 161.674 103.491 161.628 103.899C161.581 104.296 161.54 104.645 161.505 104.948C161.47 105.239 161.447 105.432 161.435 105.525C161.377 106.026 161.301 106.632 161.208 107.343C161.115 108.054 161.004 108.8 160.876 109.58C160.748 110.35 160.596 111.119 160.421 111.888C160.258 112.657 160.072 113.345 159.862 113.951C159.373 115.337 158.714 116.427 157.887 117.219C157.071 118.024 156.063 118.426 154.863 118.426C154.56 118.426 154.263 118.373 153.971 118.268C153.692 118.175 153.435 118.047 153.202 117.884C152.969 117.721 152.783 117.534 152.643 117.324C152.503 117.115 152.433 116.893 152.433 116.66C152.433 116.509 152.433 116.38 152.433 116.275C152.433 116.171 152.45 116.089 152.485 116.031C152.509 115.972 152.555 115.926 152.625 115.891C152.695 115.868 152.806 115.856 152.957 115.856C153.004 115.856 153.103 115.868 153.254 115.891C153.394 115.926 153.552 115.955 153.726 115.978C153.89 116.013 154.053 116.042 154.216 116.066C154.379 116.101 154.507 116.118 154.6 116.118C155.195 116.118 155.731 115.879 156.209 115.401C156.686 114.924 157.112 114.172 157.485 113.146C157.858 112.133 158.184 110.827 158.464 109.231C158.743 107.623 158.982 105.7 159.18 103.462C159.192 103.264 159.21 103.025 159.233 102.746C159.268 102.466 159.291 102.18 159.303 101.889C159.326 101.586 159.344 101.295 159.355 101.015C159.378 100.735 159.39 100.496 159.39 100.298C159.39 100.147 159.326 100.024 159.198 99.9313C159.081 99.838 158.947 99.7564 158.796 99.6865C158.656 99.6049 158.522 99.5175 158.394 99.4243C158.277 99.3194 158.219 99.1854 158.219 99.0223C158.219 98.8708 158.283 98.7018 158.411 98.5153C158.539 98.3289 158.761 98.0375 159.075 97.6413C159.239 97.4432 159.384 97.2334 159.512 97.012C159.641 96.7906 159.746 96.575 159.827 96.3652C159.92 96.1555 159.99 95.9632 160.037 95.7884C160.095 95.6136 160.136 95.4679 160.159 95.3514C160.183 95.2348 160.212 95.0775 160.247 94.8794C160.282 94.6696 160.317 94.4424 160.352 94.1977C160.398 93.9529 160.445 93.7024 160.491 93.446C160.538 93.178 160.579 92.9216 160.614 92.6769C160.707 92.0825 160.8 91.5231 160.893 90.9987C160.998 90.4627 161.121 89.9441 161.261 89.443C161.4 88.9302 161.569 88.4233 161.767 87.9222C161.966 87.4094 162.204 86.885 162.484 86.3489C162.787 85.7662 163.108 85.2418 163.446 84.7757C163.795 84.2979 164.168 83.8958 164.564 83.5695C164.961 83.2316 165.386 82.9752 165.84 82.8004C166.307 82.6139 166.808 82.5207 167.344 82.5207C167.81 82.5207 168.235 82.6023 168.62 82.7654C169.016 82.9286 169.36 83.1558 169.651 83.4472C169.943 83.7385 170.17 84.0881 170.333 84.496C170.496 84.9039 170.578 85.3525 170.578 85.842C170.578 86.413 170.496 87.0365 170.333 87.7124C170.181 88.3767 169.89 89.0293 169.459 89.6702C168.969 90.416 168.515 90.789 168.095 90.789H168.025C168.072 90.5792 168.119 90.3403 168.165 90.0723C168.212 89.8042 168.247 89.5304 168.27 89.2507C168.294 88.9593 168.311 88.6738 168.323 88.3941C168.346 88.1145 168.358 87.8639 168.358 87.6425C168.358 87.1064 168.317 86.6577 168.235 86.2965C168.165 85.9352 168.06 85.6439 167.921 85.4225C167.792 85.201 167.629 85.0437 167.431 84.9505C167.245 84.8573 167.041 84.8106 166.819 84.8106C166.528 84.8106 166.248 84.9214 165.98 85.1428C165.724 85.3525 165.485 85.6089 165.264 85.9119C165.054 86.2149 164.862 86.5354 164.687 86.8733C164.512 87.1996 164.372 87.4793 164.267 87.7124C164.069 88.1436 163.865 88.7088 163.655 89.408C163.457 90.0956 163.271 90.8239 163.096 91.5931C162.921 92.3506 162.77 93.0906 162.642 93.8131C162.525 94.524 162.449 95.1241 162.414 95.6136C162.414 95.9166 162.432 96.1671 162.467 96.3652C162.513 96.5517 162.577 96.6974 162.659 96.8022C162.741 96.9071 162.845 96.9829 162.974 97.0295C163.102 97.0645 163.247 97.0819 163.411 97.0819C163.62 97.0819 163.918 97.0819 164.302 97.0819C164.687 97.0703 165.1 97.0645 165.543 97.0645C165.986 97.0528 166.429 97.047 166.872 97.047C167.315 97.047 167.705 97.0528 168.043 97.0645C168.09 97.0761 168.16 97.0878 168.253 97.0994C168.346 97.1111 168.439 97.1344 168.532 97.1693C168.626 97.1926 168.707 97.2334 168.777 97.2917C168.847 97.3383 168.882 97.4082 168.882 97.5015ZM192.183 97.9385C192.183 98.1133 192.055 98.4221 191.799 98.8649C191.193 99.739 190.511 100.613 189.754 101.487C189.008 102.361 188.21 103.194 187.359 103.987C186.52 104.768 185.64 105.502 184.719 106.189C183.81 106.865 182.89 107.454 181.957 107.955C181.025 108.444 180.093 108.823 179.161 109.091C178.24 109.359 177.348 109.487 176.486 109.476C174.621 109.476 173.171 108.934 172.133 107.85C171.108 106.766 170.595 105.129 170.595 102.938C170.595 101.108 170.875 99.3311 171.434 97.6063C172.005 95.8816 172.972 94.221 174.336 92.6244C174.592 92.3447 174.878 92.0767 175.192 91.8203C175.519 91.5639 175.857 91.3367 176.206 91.1386C176.568 90.9405 176.935 90.7831 177.308 90.6666C177.692 90.5501 178.077 90.4801 178.461 90.4568C178.555 90.4568 178.683 90.4685 178.846 90.4918C179.009 90.5151 179.184 90.5559 179.37 90.6142C179.557 90.6724 179.737 90.7482 179.912 90.8414C180.087 90.923 180.227 91.0279 180.332 91.1561C180.658 91.529 180.914 91.9135 181.101 92.3098C181.299 92.706 181.41 93.143 181.433 93.6208C181.456 94.1569 181.392 94.6871 181.241 95.2115C181.101 95.7243 180.856 96.2545 180.507 96.8022C180.169 97.3383 179.72 97.8977 179.161 98.4804C178.601 99.0514 177.925 99.669 177.133 100.333C176.632 100.753 176.072 101.219 175.455 101.732C174.849 102.233 174.115 102.763 173.252 103.322C173.252 104.453 173.59 105.315 174.266 105.91C174.954 106.492 175.892 106.784 177.08 106.784C177.745 106.784 178.415 106.696 179.091 106.521C179.767 106.347 180.431 106.119 181.083 105.84C181.736 105.548 182.365 105.222 182.971 104.861C183.589 104.488 184.166 104.109 184.702 103.725C185.692 103.002 186.59 102.285 187.394 101.574C188.198 100.852 188.996 100.094 189.789 99.302L190.733 98.358C191.304 97.8569 191.717 97.6063 191.974 97.6063C192.114 97.6063 192.183 97.7171 192.183 97.9385ZM178.828 94.4599C178.817 94.2851 178.788 94.1161 178.741 93.9529C178.706 93.7781 178.648 93.6266 178.566 93.4984C178.485 93.3702 178.391 93.2712 178.287 93.2013C178.182 93.1197 178.059 93.0789 177.919 93.0789C177.302 93.1139 176.684 93.4926 176.067 94.2151C175.449 94.926 174.866 95.87 174.318 97.047C174.19 97.3034 174.074 97.5947 173.969 97.921C173.876 98.2356 173.782 98.5619 173.689 98.8999C173.608 99.2262 173.532 99.5525 173.462 99.8788C173.404 100.205 173.351 100.496 173.305 100.753C173.911 100.298 174.47 99.8788 174.983 99.4942C175.495 99.1097 175.973 98.7134 176.416 98.3056C176.696 98.0492 176.981 97.7753 177.273 97.484C177.564 97.181 177.826 96.8663 178.059 96.54C178.304 96.2137 178.496 95.8758 178.636 95.5262C178.776 95.1766 178.84 94.8211 178.828 94.4599ZM205.678 102.256C205.678 102.361 205.614 102.513 205.486 102.711C205.37 102.909 205.195 103.136 204.962 103.392C204.74 103.637 204.472 103.905 204.158 104.196C203.843 104.476 203.488 104.756 203.091 105.036C202.124 105.735 201.069 106.446 199.927 107.168C198.785 107.891 197.643 108.602 196.501 109.301C195.581 109.86 194.707 110.367 193.879 110.822C193.052 111.288 192.323 111.678 191.694 111.993C191.298 112.191 190.948 112.36 190.645 112.5C190.354 112.64 190.086 112.756 189.841 112.849C189.596 112.943 189.363 113.007 189.142 113.042C188.932 113.088 188.722 113.112 188.513 113.112C188.408 113.112 188.28 113.077 188.128 113.007C187.977 112.948 187.837 112.861 187.708 112.744C187.58 112.64 187.47 112.517 187.376 112.377C187.283 112.237 187.237 112.092 187.237 111.94C187.237 111.194 187.528 110.6 188.111 110.157C188.25 110.052 188.384 109.959 188.513 109.878C188.641 109.796 188.786 109.72 188.95 109.65C189.113 109.569 189.305 109.493 189.526 109.423C189.76 109.353 190.045 109.283 190.383 109.213C191.012 109.085 191.612 108.922 192.183 108.724C192.766 108.526 193.203 108.316 193.495 108.095C193.786 107.873 193.984 107.594 194.089 107.256C194.205 106.918 194.264 106.556 194.264 106.172C194.264 105.787 193.862 105.006 193.058 103.829C192.661 103.235 192.306 102.716 191.991 102.274C191.688 101.831 191.426 101.411 191.205 101.015C190.983 100.607 190.814 100.164 190.698 99.6865C190.593 99.1971 190.54 98.7309 190.54 98.2881C190.54 97.484 190.686 96.6624 190.977 95.8233C191.117 95.3339 191.333 94.8503 191.624 94.3725C191.927 93.883 192.259 93.446 192.621 93.0614C192.982 92.6769 193.343 92.3622 193.704 92.1175C194.077 91.8728 194.404 91.7504 194.683 91.7504H194.736C195.761 91.7504 196.274 92.3564 196.274 93.5684C196.274 94.0345 196.105 94.489 195.767 94.9318C195.429 95.363 194.963 95.8233 194.369 96.3128C194.077 96.5575 193.809 96.7731 193.564 96.9596C193.32 97.146 193.133 97.3034 193.005 97.4315C193.005 97.7345 193.052 98.09 193.145 98.4979C193.238 98.8941 193.378 99.2961 193.564 99.704C193.763 100.1 194.019 100.514 194.334 100.945C194.648 101.376 194.957 101.796 195.26 102.204C195.447 102.46 195.639 102.746 195.837 103.06C196.047 103.363 196.239 103.69 196.414 104.039C196.589 104.377 196.734 104.721 196.851 105.071C196.967 105.42 197.037 105.758 197.061 106.084C197.061 106.108 197.084 106.143 197.13 106.189C197.177 106.224 197.23 106.242 197.288 106.242C197.381 106.242 197.562 106.172 197.83 106.032C198.109 105.88 198.442 105.694 198.826 105.473C199.211 105.239 199.63 104.983 200.085 104.703C200.539 104.412 200.988 104.127 201.431 103.847C201.874 103.556 202.293 103.282 202.689 103.025C203.097 102.769 203.441 102.553 203.721 102.379C204.094 102.145 204.373 101.942 204.56 101.767C204.758 101.58 204.938 101.487 205.102 101.487C205.3 101.487 205.445 101.563 205.539 101.714C205.632 101.854 205.678 102.035 205.678 102.256ZM222.25 97.3616C222.25 97.5481 222.197 97.7578 222.093 97.9909C221.988 98.2123 221.848 98.4454 221.673 98.6901C221.498 98.9349 221.3 99.1854 221.079 99.4418C220.857 99.6865 220.636 99.9313 220.414 100.176C220.24 100.374 220.053 100.578 219.855 100.788C219.657 100.986 219.43 101.213 219.173 101.47C218.929 101.714 218.637 102.006 218.299 102.344C217.961 102.67 217.565 103.054 217.111 103.497C216.703 103.893 216.248 104.313 215.747 104.756C215.258 105.187 214.757 105.612 214.244 106.032C213.743 106.451 213.253 106.854 212.775 107.238C212.298 107.623 211.884 107.961 211.534 108.252C210.695 108.94 209.897 109.586 209.14 110.192C208.382 110.81 207.636 111.363 206.902 111.853C205.445 112.832 204.292 113.321 203.441 113.321C203.15 113.321 202.812 113.246 202.427 113.094C202.031 112.943 201.833 112.733 201.833 112.465C201.833 111.707 202.118 111.113 202.689 110.682C203.249 110.274 204.123 109.831 205.311 109.353C206.477 108.887 207.351 108.433 207.933 107.99C208.516 107.547 208.807 106.941 208.807 106.172C208.807 105.787 208.405 105.006 207.601 103.829C207.205 103.235 206.85 102.693 206.535 102.204C206.232 101.703 205.97 101.254 205.748 100.858C205.305 100.042 205.084 99.1854 205.084 98.2881C205.084 97.5073 205.23 96.6857 205.521 95.8233C205.661 95.3339 205.882 94.8444 206.185 94.355C206.5 93.8539 206.838 93.411 207.199 93.0265C207.56 92.6302 207.928 92.3156 208.3 92.0825C208.673 91.8494 209 91.7387 209.279 91.7504C210.305 91.7504 210.818 92.3564 210.818 93.5684C210.818 94.0345 210.649 94.489 210.311 94.9318C210.148 95.1416 209.949 95.363 209.716 95.5961C209.483 95.8175 209.215 96.0564 208.912 96.3128C208.621 96.5575 208.37 96.7731 208.161 96.9596C207.963 97.146 207.799 97.3034 207.671 97.4315C207.671 98.0375 207.858 98.7484 208.231 99.5642C208.429 99.9604 208.656 100.392 208.912 100.858C209.169 101.324 209.466 101.825 209.804 102.361C210.142 102.897 210.427 103.381 210.66 103.812C210.893 104.231 211.068 104.54 211.185 104.738C211.196 104.785 211.261 104.808 211.377 104.808C211.54 104.808 211.82 104.692 212.216 104.459C212.624 104.214 213.102 103.893 213.65 103.497C214.209 103.089 214.815 102.623 215.467 102.099C216.12 101.563 216.773 100.998 217.425 100.403C218.101 99.7972 218.661 99.267 219.103 98.8125C219.546 98.358 219.966 97.9326 220.362 97.5364C220.758 97.1402 221.05 96.8372 221.236 96.6274C221.434 96.406 221.545 96.2953 221.568 96.2953C221.661 96.2953 221.749 96.3303 221.83 96.4002C221.912 96.4701 221.982 96.5633 222.04 96.6799C222.11 96.7848 222.162 96.9013 222.197 97.0295C222.232 97.146 222.25 97.2567 222.25 97.3616ZM244.957 98.0958C244.957 98.2356 244.94 98.4046 244.905 98.6027C244.87 98.7892 244.817 98.9815 244.747 99.1796C244.689 99.3777 244.619 99.57 244.537 99.7564C244.468 99.9313 244.392 100.071 244.31 100.176C244.24 100.269 244.135 100.397 243.996 100.561C243.867 100.712 243.722 100.881 243.559 101.067C243.395 101.254 243.215 101.452 243.017 101.662C242.83 101.86 242.632 102.052 242.422 102.239C241.7 102.903 240.989 103.55 240.29 104.179C239.602 104.797 238.891 105.344 238.157 105.822C237.423 106.3 236.654 106.685 235.85 106.976C235.057 107.256 234.195 107.39 233.263 107.378C232.831 107.378 232.394 107.302 231.952 107.151C231.52 106.988 231.112 106.76 230.728 106.469C230.343 106.178 230.011 105.828 229.732 105.42C229.452 105.012 229.254 104.564 229.137 104.074C228.799 104.424 228.444 104.791 228.071 105.175C227.698 105.548 227.308 105.927 226.9 106.312C226.503 106.696 226.09 107.069 225.659 107.43C225.227 107.792 224.785 108.124 224.33 108.427C224.074 108.59 223.765 108.765 223.404 108.951C223.054 109.138 222.681 109.312 222.285 109.476C221.9 109.627 221.51 109.755 221.114 109.86C220.729 109.953 220.379 110 220.065 110C219.587 110 219.173 109.854 218.824 109.563C218.486 109.26 218.2 108.893 217.967 108.462C217.746 108.031 217.577 107.57 217.46 107.081C217.355 106.591 217.303 106.154 217.303 105.77C217.303 105.001 217.414 104.214 217.635 103.41C217.856 102.606 218.142 101.825 218.492 101.067C218.853 100.298 219.249 99.57 219.68 98.8824C220.123 98.1949 220.554 97.583 220.974 97.047C221.417 96.4876 221.941 95.934 222.547 95.3863C223.153 94.827 223.782 94.3317 224.435 93.9005C225.088 93.4577 225.729 93.1022 226.358 92.8342C226.987 92.5661 227.546 92.4321 228.036 92.4321C228.281 92.4321 228.537 92.4321 228.805 92.4321C229.085 92.4321 229.359 92.4496 229.627 92.4846C229.895 92.5079 230.157 92.5545 230.413 92.6244C230.67 92.6827 230.903 92.7759 231.112 92.9041C231.217 92.974 231.34 93.108 231.48 93.3062C231.619 93.5043 231.748 93.7257 231.864 93.9704C231.992 94.2151 232.097 94.4599 232.179 94.7046C232.26 94.9493 232.301 95.1416 232.301 95.2814C232.301 95.666 232.214 96.1788 232.039 96.8197C231.853 97.6238 231.678 98.358 231.515 99.0223C231.363 99.6749 231.287 100.351 231.287 101.05C231.287 101.446 231.351 101.854 231.48 102.274C231.608 102.682 231.788 103.054 232.021 103.392C232.266 103.73 232.558 104.01 232.896 104.231C233.245 104.441 233.636 104.546 234.067 104.546C234.778 104.546 235.506 104.4 236.252 104.109C236.998 103.806 237.749 103.398 238.507 102.885C239.276 102.361 240.039 101.761 240.797 101.085C241.554 100.397 242.3 99.669 243.034 98.8999C243.092 98.83 243.192 98.7134 243.331 98.5503C243.483 98.3755 243.634 98.2065 243.786 98.0434C243.949 97.8686 244.106 97.7171 244.258 97.5889C244.409 97.449 244.52 97.3791 244.59 97.3791C244.835 97.3791 244.957 97.618 244.957 98.0958ZM229.399 96.6449C229.399 96.4468 229.388 96.2021 229.364 95.9107C229.341 95.6194 229.265 95.3805 229.137 95.194C229.009 95.0076 228.852 94.9202 228.665 94.9318C228.479 94.9318 228.292 94.9318 228.106 94.9318C227.698 94.9318 227.302 94.9959 226.917 95.1241C226.544 95.2523 226.177 95.4329 225.816 95.666C225.455 95.8874 225.105 96.1496 224.767 96.4526C224.441 96.744 224.12 97.0528 223.806 97.3791C223.538 97.6471 223.252 97.9793 222.949 98.3755C222.658 98.7717 222.366 99.2087 222.075 99.6865C221.795 100.153 221.522 100.648 221.254 101.172C220.985 101.685 220.752 102.198 220.554 102.711C220.356 103.212 220.199 103.701 220.082 104.179C219.966 104.645 219.908 105.071 219.908 105.455C219.908 105.572 219.919 105.729 219.942 105.927C219.977 106.114 220.024 106.3 220.082 106.486C220.152 106.661 220.24 106.813 220.345 106.941C220.461 107.069 220.601 107.133 220.764 107.133C221.3 107.133 221.97 106.964 222.774 106.626C223.87 106.16 224.86 105.525 225.746 104.721C226.643 103.905 227.407 102.967 228.036 101.907C228.945 100.263 229.399 98.5095 229.399 96.6449ZM261.511 94.8794C261.511 95.0892 261.482 95.2698 261.424 95.4213C261.365 95.5728 261.284 95.701 261.179 95.8059C261.074 95.9107 260.952 96.0098 260.812 96.103C260.672 96.1846 260.526 96.2662 260.375 96.3478C259.99 96.5226 259.53 96.6682 258.994 96.7848C258.469 96.9013 257.922 97.0062 257.351 97.0994C256.791 97.181 256.232 97.2567 255.673 97.3267C255.125 97.3849 254.624 97.449 254.169 97.5189C253.319 97.6471 252.567 97.752 251.914 97.8336C251.262 97.9035 250.696 97.9734 250.219 98.0434C249.741 98.1133 249.345 98.189 249.03 98.2706C248.715 98.3522 248.465 98.4687 248.278 98.6202C248.034 99.6807 247.777 100.759 247.509 101.854C247.253 102.938 247.031 103.958 246.845 104.913C246.81 105.076 246.769 105.251 246.723 105.438C246.688 105.612 246.647 105.799 246.6 105.997C246.519 106.405 246.455 106.766 246.408 107.081C246.361 107.384 246.338 107.675 246.338 107.955C246.338 108.351 246.379 108.671 246.46 108.916C246.507 109.044 246.559 109.213 246.618 109.423C246.676 109.621 246.752 109.854 246.845 110.122C247.031 110.67 247.125 111.06 247.125 111.294C247.125 111.666 246.973 112.069 246.67 112.5C246.379 112.931 246.052 113.146 245.691 113.146C245.307 113.146 244.91 112.855 244.503 112.272C244.304 111.981 244.13 111.69 243.978 111.398C243.827 111.119 243.693 110.833 243.576 110.542C243.39 109.983 243.296 109.435 243.296 108.899C243.296 108.782 243.302 108.666 243.314 108.549C243.326 108.421 243.343 108.287 243.366 108.147C243.413 107.891 243.483 107.57 243.576 107.186C243.623 106.999 243.658 106.842 243.681 106.714C243.716 106.574 243.745 106.463 243.768 106.382C244.048 105.088 244.281 104.004 244.468 103.13C244.666 102.256 244.811 101.574 244.905 101.085C245.149 99.9895 245.272 99.3719 245.272 99.232C245.272 99.0456 245.202 98.9057 245.062 98.8125C244.934 98.7076 244.776 98.6552 244.59 98.6552C244.369 98.6552 244.118 98.6668 243.838 98.6901C243.559 98.7018 243.25 98.7309 242.912 98.7775C242.574 98.8242 242.294 98.8591 242.073 98.8824C241.851 98.8941 241.688 98.8999 241.583 98.8999C241.164 98.8999 240.779 98.8358 240.43 98.7076C240.092 98.5794 239.8 98.3988 239.556 98.1657C239.299 97.921 239.101 97.6355 238.961 97.3092C238.821 96.9712 238.751 96.5925 238.751 96.1729C239.078 96.2196 239.41 96.2545 239.748 96.2778C240.097 96.2895 240.459 96.2953 240.832 96.2953C240.995 96.2953 241.24 96.2895 241.566 96.2778C241.904 96.2545 242.323 96.2196 242.824 96.1729C243.337 96.1263 243.774 96.0914 244.135 96.0681C244.508 96.0448 244.811 96.0331 245.044 96.0331C245.324 96.0331 245.633 95.6019 245.971 94.7396C246.134 94.2967 246.286 93.848 246.425 93.3936C246.577 92.9391 246.711 92.4671 246.827 91.9776C246.956 91.4882 247.061 91.057 247.142 90.6841C247.235 90.2995 247.311 89.9732 247.369 89.7052C247.393 89.6353 247.445 89.3789 247.527 88.936C247.585 88.703 247.632 88.4874 247.666 88.2893C247.713 88.0795 247.748 87.893 247.771 87.7299C247.853 87.287 247.94 86.8792 248.034 86.5063C248.138 86.1333 248.255 85.7954 248.383 85.4924C248.64 84.8864 249.053 84.5834 249.624 84.5834C250.487 84.5834 250.918 85.0612 250.918 86.0168C250.918 86.6111 250.79 87.2929 250.533 88.062C249.426 91.5931 248.873 93.749 248.873 94.5298C248.873 94.961 249.088 95.1766 249.519 95.1766C250.58 95.1766 251.652 95.1533 252.736 95.1066C253.831 95.0484 254.892 94.9726 255.917 94.8794C256.453 94.8328 256.925 94.7862 257.333 94.7396C257.753 94.6813 258.137 94.6288 258.487 94.5822C258.837 94.524 259.169 94.4715 259.483 94.4249C259.81 94.3783 260.153 94.3317 260.515 94.2851C260.585 94.2734 260.672 94.2676 260.777 94.2676C260.893 94.2559 261.004 94.2676 261.109 94.3025C261.214 94.3375 261.307 94.4016 261.389 94.4948C261.47 94.5764 261.511 94.7046 261.511 94.8794ZM265.479 84.4086C265.479 85.1661 265.281 85.8129 264.885 86.3489C264.5 86.885 263.935 87.153 263.189 87.153C262.723 87.153 262.204 87.0831 261.633 86.9433C261.074 86.8034 260.794 86.5762 260.794 86.2615C260.794 85.6905 260.969 85.1486 261.319 84.6358C261.68 84.1114 262.111 83.6861 262.612 83.3598C263.009 83.1267 263.271 83.0102 263.399 83.0102C264.063 83.0102 264.576 83.1034 264.937 83.2898C265.298 83.4646 265.479 83.8376 265.479 84.4086ZM276.929 98.6202C276.94 98.8649 276.83 99.1971 276.597 99.6166C276.375 100.036 276.066 100.514 275.67 101.05C275.286 101.574 274.831 102.14 274.307 102.746C273.794 103.352 273.252 103.958 272.681 104.564C272.028 105.263 271.335 105.939 270.601 106.591C269.878 107.232 269.103 107.856 268.276 108.462C266.644 109.674 265.188 110.28 263.906 110.28C262.496 110.28 261.4 109.808 260.62 108.864C259.839 107.908 259.308 106.754 259.029 105.403C258.749 104.062 258.609 102.682 258.609 101.26C258.609 100.665 258.679 99.739 258.819 98.4804C258.889 97.8511 258.959 97.3092 259.029 96.8547C259.099 96.4002 259.174 96.0331 259.256 95.7534C259.419 95.2057 259.763 94.7279 260.287 94.32C260.823 93.8888 261.383 93.6732 261.966 93.6732C262.28 93.6732 262.437 93.9704 262.437 94.5647C262.437 94.961 262.397 95.4096 262.315 95.9107C262.245 96.4118 262.169 96.9071 262.088 97.3966C261.936 98.3172 261.826 99.1446 261.756 99.8788C261.686 100.601 261.651 101.231 261.651 101.767C261.651 102.944 261.814 104.132 262.14 105.333C262.467 106.556 263.055 107.168 263.906 107.168C264.768 107.168 265.77 106.854 266.912 106.224C267.484 105.898 268.055 105.537 268.626 105.14C269.197 104.744 269.768 104.301 270.339 103.812C270.921 103.322 271.481 102.833 272.017 102.344C272.553 101.842 273.077 101.33 273.59 100.805C274.103 100.281 274.563 99.7914 274.971 99.3369C275.379 98.8824 275.734 98.4629 276.037 98.0783C276.049 98.055 276.066 98.0201 276.09 97.9734C276.125 97.9152 276.16 97.8627 276.195 97.8161C276.23 97.7578 276.265 97.7112 276.3 97.6763C276.334 97.6413 276.369 97.6297 276.404 97.6413C276.568 97.6413 276.69 97.7695 276.771 98.0259C276.876 98.2706 276.929 98.4687 276.929 98.6202ZM298.622 94.5822C298.622 94.7803 298.552 94.9959 298.412 95.229C298.272 95.4621 298.092 95.701 297.87 95.9457C297.649 96.1788 297.398 96.4118 297.119 96.6449C296.839 96.8663 296.559 97.0761 296.28 97.2742C296 97.4607 295.732 97.6297 295.476 97.7812C295.231 97.921 295.027 98.0259 294.864 98.0958C294.561 98.224 294.159 98.3405 293.658 98.4454C293.168 98.5386 292.655 98.6202 292.119 98.6901C291.583 98.7601 291.059 98.8183 290.546 98.8649C290.033 98.8999 289.602 98.9174 289.253 98.9174C289.113 98.9174 288.92 98.8941 288.676 98.8475C288.431 98.8008 288.18 98.7426 287.924 98.6727C287.668 98.6027 287.423 98.527 287.19 98.4454C286.968 98.3522 286.805 98.259 286.7 98.1657C286.805 98.6086 286.898 99.0572 286.98 99.5117C287.062 99.9546 287.102 100.415 287.102 100.893C287.102 101.102 287.073 101.359 287.015 101.662C286.968 101.965 286.898 102.274 286.805 102.588C286.724 102.891 286.63 103.188 286.526 103.48C286.421 103.759 286.31 103.993 286.193 104.179C285.89 104.692 285.576 105.158 285.249 105.577C284.935 105.997 284.574 106.387 284.166 106.749C283.769 107.098 283.321 107.43 282.82 107.745C282.319 108.06 281.742 108.363 281.089 108.654C280.39 108.957 279.685 109.173 278.974 109.301C278.275 109.417 277.546 109.476 276.789 109.476C276.311 109.476 275.886 109.336 275.513 109.056C275.14 108.776 274.825 108.403 274.569 107.937C274.313 107.46 274.114 106.912 273.975 106.294C273.846 105.676 273.782 105.03 273.782 104.354C273.782 104.179 273.794 103.963 273.817 103.707C273.852 103.451 273.893 103.188 273.94 102.92C273.998 102.652 274.056 102.396 274.114 102.151C274.173 101.907 274.231 101.697 274.289 101.522C274.452 101.033 274.685 100.473 274.988 99.8438C275.291 99.2146 275.647 98.5736 276.055 97.921C276.463 97.2567 276.917 96.61 277.418 95.9807C277.919 95.3397 278.444 94.7687 278.991 94.2676C279.539 93.7665 280.11 93.3644 280.705 93.0614C281.299 92.7584 281.893 92.6069 282.488 92.6069C282.686 92.6069 282.843 92.6361 282.96 92.6943C283.088 92.7526 283.193 92.8284 283.274 92.9216C283.367 93.0148 283.449 93.1139 283.519 93.2188C283.589 93.3236 283.67 93.4285 283.764 93.5334C283.799 93.5917 283.851 93.6208 283.921 93.6208C284.014 93.6208 284.131 93.5975 284.271 93.5509C284.41 93.5043 284.568 93.481 284.743 93.481C284.964 93.481 285.238 93.6266 285.564 93.918C285.89 94.1977 286.228 94.5123 286.578 94.8619C286.939 95.1999 287.295 95.5145 287.644 95.8059C288.006 96.0855 288.326 96.2254 288.606 96.2254C288.92 96.2254 289.258 96.2196 289.62 96.2079C289.981 96.1963 290.348 96.1788 290.721 96.1555C291.094 96.1205 291.461 96.0797 291.822 96.0331C292.183 95.9865 292.516 95.934 292.819 95.8758C292.9 95.8525 293.092 95.8 293.395 95.7185C293.698 95.6369 294.048 95.5437 294.444 95.4388C294.852 95.3222 295.277 95.1999 295.72 95.0717C296.175 94.9435 296.594 94.827 296.979 94.7221C297.363 94.6055 297.678 94.5123 297.923 94.4424C298.179 94.3725 298.319 94.3375 298.342 94.3375C298.412 94.3375 298.476 94.355 298.535 94.3899C298.593 94.4249 298.622 94.489 298.622 94.5822ZM284.987 97.3791C284.917 97.146 284.778 96.9188 284.568 96.6974C284.37 96.4759 284.137 96.2778 283.869 96.103C283.612 95.9282 283.338 95.7884 283.047 95.6835C282.756 95.567 282.482 95.5087 282.225 95.5087C282.016 95.5087 281.812 95.5437 281.614 95.6136C281.415 95.6835 281.217 95.7767 281.019 95.8933C280.833 95.9981 280.652 96.1205 280.477 96.2604C280.303 96.3885 280.139 96.5109 279.988 96.6274C279.533 97.012 279.096 97.5539 278.677 98.2531C278.269 98.9407 277.908 99.6865 277.593 100.491C277.29 101.283 277.045 102.076 276.859 102.868C276.672 103.66 276.579 104.348 276.579 104.931C276.579 105.187 276.62 105.438 276.702 105.682C276.795 105.915 276.923 106.125 277.086 106.312C277.249 106.486 277.442 106.632 277.663 106.749C277.884 106.854 278.129 106.906 278.397 106.906C279.096 106.906 279.743 106.784 280.337 106.539C280.932 106.282 281.468 105.939 281.946 105.508C282.435 105.065 282.866 104.54 283.239 103.934C283.612 103.328 283.927 102.676 284.183 101.976C284.44 101.266 284.632 100.52 284.76 99.739C284.9 98.9582 284.976 98.1715 284.987 97.3791ZM325.752 97.5015C325.752 97.7229 325.711 97.9501 325.629 98.1832C325.559 98.4046 325.466 98.6319 325.35 98.8649C325.245 99.0864 325.122 99.3078 324.983 99.5292C324.843 99.739 324.709 99.9429 324.581 100.141C324.243 100.665 323.846 101.201 323.392 101.749C322.937 102.285 322.448 102.81 321.924 103.322C321.411 103.835 320.881 104.319 320.333 104.773C319.785 105.228 319.249 105.63 318.725 105.979C318.305 106.259 317.903 106.521 317.518 106.766C317.146 107.011 316.767 107.221 316.382 107.395C315.998 107.57 315.596 107.71 315.176 107.815C314.757 107.92 314.296 107.972 313.795 107.972C312.828 107.972 312.041 107.728 311.435 107.238C311.132 106.993 310.864 106.679 310.631 106.294C310.41 105.898 310.212 105.461 310.037 104.983C309.874 104.505 309.728 103.998 309.6 103.462C309.483 102.926 309.384 102.396 309.303 101.872C309.198 101.219 309.099 100.636 309.005 100.124C308.912 99.5991 308.802 99.1621 308.673 98.8125C308.557 98.4512 308.411 98.1774 308.236 97.9909C308.062 97.7928 307.834 97.6938 307.555 97.6938C307.333 97.6938 307.123 97.7171 306.925 97.7637C306.727 97.8103 306.517 97.9035 306.296 98.0434C306.086 98.1832 305.853 98.3813 305.597 98.6377C305.34 98.8941 305.037 99.232 304.688 99.6516C304.35 100.071 303.959 100.584 303.517 101.19C303.074 101.796 302.555 102.518 301.961 103.357C301.669 103.765 301.326 104.214 300.929 104.703C300.533 105.193 300.125 105.659 299.706 106.102C299.298 106.545 298.896 106.935 298.5 107.273C298.103 107.611 297.754 107.827 297.451 107.92C296.425 107.698 295.913 106.422 295.913 104.092C295.913 103.474 295.983 102.536 296.122 101.277C296.192 100.706 296.274 100.112 296.367 99.4942C296.46 98.8649 296.577 98.2415 296.717 97.6238C296.857 96.9945 297.014 96.3885 297.189 95.8059C297.375 95.2115 297.591 94.6638 297.835 94.1627C297.952 93.9296 298.074 93.749 298.203 93.6208C298.331 93.481 298.459 93.3819 298.587 93.3236C298.727 93.2537 298.867 93.2129 299.007 93.2013C299.158 93.178 299.31 93.1663 299.461 93.1663C299.648 93.1663 299.811 93.2945 299.951 93.5509C300.102 93.8073 300.178 94.1627 300.178 94.6172C300.178 94.8969 300.155 95.1591 300.108 95.4038C300.061 95.6485 299.997 95.8991 299.916 96.1555C299.834 96.4118 299.747 96.6915 299.653 96.9945C299.56 97.2859 299.467 97.6238 299.374 98.0084C299.304 98.323 299.222 98.6727 299.129 99.0572C299.047 99.4418 298.966 99.8322 298.884 100.228C298.814 100.625 298.75 101.015 298.692 101.4C298.645 101.773 298.622 102.11 298.622 102.413C298.622 102.623 298.657 102.839 298.727 103.06C299.053 103.025 299.589 102.536 300.335 101.592C300.72 101.114 301.139 100.59 301.594 100.019C302.06 99.4476 302.561 98.8183 303.097 98.1308C303.493 97.618 303.884 97.1402 304.268 96.6974C304.664 96.2545 305.072 95.87 305.492 95.5437C305.911 95.2057 306.354 94.9435 306.82 94.757C307.298 94.5589 307.823 94.4599 308.394 94.4599C309 94.4599 309.501 94.5939 309.897 94.8619C310.305 95.1183 310.631 95.4796 310.876 95.9457C311.121 96.4002 311.307 96.9479 311.435 97.5889C311.575 98.2298 311.686 98.9349 311.767 99.704C311.837 100.357 311.901 101.003 311.96 101.644C312.03 102.285 312.158 102.862 312.344 103.375C312.531 103.876 312.799 104.284 313.148 104.599C313.498 104.913 313.999 105.071 314.652 105.071C315.153 105.071 315.677 104.954 316.225 104.721C316.773 104.488 317.349 104.167 317.955 103.759C318.561 103.34 319.185 102.85 319.826 102.291C320.478 101.732 321.149 101.12 321.836 100.456C322.104 100.199 322.396 99.8788 322.71 99.4942C323.036 99.098 323.351 98.7193 323.654 98.358C323.969 97.9967 324.26 97.6879 324.528 97.4315C324.796 97.1752 325.012 97.047 325.175 97.047C325.245 97.047 325.356 97.0819 325.507 97.1519C325.67 97.2218 325.752 97.3383 325.752 97.5015ZM332.831 106.207C332.831 106.801 332.726 107.384 332.517 107.955C332.307 108.514 332.021 109.044 331.66 109.546C331.311 110.047 330.903 110.507 330.437 110.926C329.982 111.358 329.504 111.725 329.003 112.028C328.514 112.342 328.018 112.581 327.517 112.744C327.016 112.919 326.556 113.007 326.136 113.007C325.554 113.007 325.169 112.878 324.983 112.622C324.796 112.366 324.703 112.004 324.703 111.538C324.703 111.107 324.784 110.775 324.948 110.542C325.111 110.32 325.344 110.128 325.647 109.965C325.682 109.953 325.746 109.942 325.839 109.93C325.932 109.907 326.031 109.895 326.136 109.895C326.253 109.883 326.364 109.878 326.468 109.878C326.585 109.866 326.678 109.86 326.748 109.86C326.83 109.86 326.946 109.843 327.098 109.808C327.249 109.773 327.412 109.726 327.587 109.668C327.762 109.598 327.943 109.516 328.129 109.423C328.316 109.318 328.49 109.202 328.654 109.074C329.12 108.701 329.446 108.287 329.632 107.832C329.831 107.366 329.93 106.953 329.93 106.591C329.93 106.137 329.784 105.711 329.493 105.315C329.201 104.919 328.834 104.534 328.391 104.162C327.948 103.777 327.471 103.398 326.958 103.025C326.445 102.641 325.967 102.239 325.524 101.819C325.082 101.388 324.715 100.933 324.423 100.456C324.132 99.9779 323.986 99.4476 323.986 98.8649C323.986 98.5736 324.021 98.2648 324.091 97.9385C324.173 97.6122 324.272 97.2917 324.388 96.9771C324.516 96.6624 324.656 96.3594 324.808 96.0681C324.971 95.7651 325.14 95.4912 325.315 95.2465C325.594 94.8503 325.897 94.4599 326.224 94.0753C326.562 93.6907 326.9 93.3528 327.238 93.0614C327.576 92.7584 327.908 92.5195 328.234 92.3447C328.56 92.1583 328.863 92.065 329.143 92.065C329.935 92.065 330.332 92.5312 330.332 93.4635C330.332 93.7898 330.198 94.1685 329.93 94.5997C329.673 95.0309 329.364 95.4271 329.003 95.7884C328.444 96.3244 327.954 96.7848 327.535 97.1693C327.115 97.5423 326.725 97.9268 326.364 98.323C326.632 98.7193 326.923 99.0805 327.238 99.4068C327.552 99.7331 327.879 100.048 328.216 100.351C328.566 100.654 328.916 100.951 329.265 101.242C329.627 101.534 329.982 101.837 330.332 102.151C330.658 102.454 330.967 102.763 331.258 103.078C331.561 103.381 331.829 103.701 332.062 104.039C332.295 104.365 332.482 104.709 332.622 105.071C332.761 105.432 332.831 105.811 332.831 106.207Z" fill="white"/>
</svg>
