<svg width="50" height="50" viewBox="0 0 50 50" fill="none" xmlns="http://www.w3.org/2000/svg">
<g id="help">
<path id="Oval 2" d="M25 29.1667C25 25 28.2834 24.3027 29.414 23.1749C30.5482 22.0434 31.25 20.4787 31.25 18.75C31.25 15.2982 28.4518 12.5 25 12.5C23.1335 12.5 21.4581 13.3182 20.3129 14.6155C19.7834 15.2153 19.3672 15.9176 19.0979 16.6888" stroke="#892CDC" stroke-linecap="round"/>
<path id="Oval" fill-rule="evenodd" clip-rule="evenodd" d="M25 37.5C26.1506 37.5 27.0833 36.5673 27.0833 35.4167C27.0833 34.2661 26.1506 33.3333 25 33.3333C23.8494 33.3333 22.9166 34.2661 22.9166 35.4167C22.9166 36.5673 23.8494 37.5 25 37.5Z" fill="#892CDC"/>
<path id="Oval_2" fill-rule="evenodd" clip-rule="evenodd" d="M25 45.8333C36.5059 45.8333 45.8333 36.5059 45.8333 25C45.8333 13.4941 36.5059 4.16666 25 4.16666C13.494 4.16666 4.16663 13.4941 4.16663 25C4.16663 36.5059 13.494 45.8333 25 45.8333Z" stroke="#892CDC"/>
</g>
</svg>
