<svg width="250" height="50" viewBox="0 0 250 50" fill="none" xmlns="http://www.w3.org/2000/svg">
<rect width="250" height="50" rx="20" fill="#892CDC"/>
<path d="M111.229 27.754C111.999 28.832 113.147 29.252 114.449 29.252C116.059 29.252 117.529 28.258 117.529 26.466C117.529 22.742 112.419 24.534 112.419 21.552C112.419 20.292 113.455 19.676 114.645 19.676C115.499 19.676 116.115 20.012 116.577 20.656L117.375 20.082C116.703 19.2 115.751 18.836 114.673 18.836C113.007 18.836 111.495 19.788 111.495 21.552C111.495 25.318 116.605 23.694 116.605 26.466C116.605 27.656 115.625 28.412 114.379 28.412C113.399 28.412 112.601 27.992 112.111 27.166L111.229 27.754ZM122.551 22.532H120.703V20.67H119.863V22.532H118.463V23.288H119.863V27.502C119.863 28.426 120.325 29.168 121.529 29.168C121.851 29.168 122.313 29.056 122.621 28.944L122.551 28.188C122.257 28.314 121.921 28.412 121.599 28.412C121.039 28.412 120.703 28.076 120.703 27.502V23.288H122.551V22.532ZM129.075 24.702C129.075 23.064 128.067 22.364 126.499 22.364C125.659 22.364 124.651 22.686 124.035 23.274L124.525 23.848C125.099 23.358 125.743 23.12 126.499 23.12C127.535 23.12 128.319 23.568 128.319 24.688V25.08H127.339C126.065 25.08 123.755 25.276 123.755 27.25C123.755 28.622 124.931 29.168 126.037 29.168C127.129 29.168 127.829 28.776 128.305 27.95H128.333C128.333 28.314 128.361 28.678 128.417 29H129.201C129.103 28.258 129.075 27.544 129.075 26.284V24.702ZM128.319 25.752V26.186C128.319 27.264 127.857 28.412 126.065 28.412C125.365 28.412 124.595 28.006 124.595 27.208C124.595 26.102 125.995 25.752 127.395 25.752H128.319ZM131.308 29H132.148V25.472C132.148 24.212 132.806 23.204 134.262 23.204C134.346 23.204 134.458 23.218 134.584 23.26L134.682 22.434C134.514 22.392 134.36 22.364 134.192 22.364C133.226 22.364 132.554 22.91 132.134 23.666C132.106 23.54 132.092 23.008 132.078 22.532H131.238C131.238 22.868 131.308 23.876 131.308 24.352V29ZM139.135 22.532H137.287V20.67H136.447V22.532H135.047V23.288H136.447V27.502C136.447 28.426 136.909 29.168 138.113 29.168C138.435 29.168 138.897 29.056 139.205 28.944L139.135 28.188C138.841 28.314 138.505 28.412 138.183 28.412C137.623 28.412 137.287 28.076 137.287 27.502V23.288H139.135V22.532Z" fill="white"/>
</svg>
