<svg width="75" height="100" viewBox="0 0 75 100" fill="none" xmlns="http://www.w3.org/2000/svg">
<path d="M26.4855 66.256H25.2975V73.816C25.2975 75.634 24.8115 78.244 21.8415 78.244C18.8715 78.244 18.3855 75.634 18.3855 73.816V66.256H17.1975V74.122C17.1975 76.84 18.3675 79.324 21.8415 79.324C25.3155 79.324 26.4855 76.84 26.4855 74.122V66.256ZM28.4942 77.524C29.1422 78.676 30.4202 79.216 31.8422 79.216C33.4262 79.216 34.8482 78.352 34.8482 76.642C34.8482 73.276 29.9162 75.022 29.9162 72.772C29.9162 71.908 30.9062 71.44 31.6802 71.44C32.6522 71.44 33.2282 71.854 33.6422 72.61L34.6142 72.034C34.0742 70.972 33.0302 70.468 31.6802 70.468C30.3122 70.468 28.8362 71.242 28.8362 72.862C28.8362 76.03 33.7682 74.428 33.7682 76.714C33.7682 77.668 32.7962 78.244 31.8602 78.244C30.8882 78.244 29.8982 77.758 29.4482 76.876L28.4942 77.524ZM43.6463 76.768C43.1063 77.668 41.9543 78.244 40.8563 78.244C38.3363 78.244 37.7063 76.012 37.7063 75.112H44.6903V74.356C44.6903 72.43 43.3403 70.468 40.7843 70.468C38.3543 70.468 36.6263 72.34 36.6263 74.824C36.6263 77.398 38.3003 79.216 40.8383 79.216C42.3143 79.216 43.5923 78.694 44.4383 77.434L43.6463 76.768ZM37.7063 74.14C37.7063 73.708 38.3723 71.44 40.7303 71.44C42.3323 71.44 43.6103 72.664 43.6103 74.14H37.7063ZM47.0963 79H48.1763V74.464C48.1763 72.844 49.0223 71.548 50.8943 71.548C51.0023 71.548 51.1463 71.566 51.3083 71.62L51.4343 70.558C51.2183 70.504 51.0203 70.468 50.8043 70.468C49.5623 70.468 48.6983 71.17 48.1583 72.142C48.1223 71.98 48.1043 71.296 48.0863 70.684H47.0063C47.0063 71.116 47.0963 72.412 47.0963 73.024V79ZM52.1544 77.524C52.8024 78.676 54.0804 79.216 55.5024 79.216C57.0864 79.216 58.5084 78.352 58.5084 76.642C58.5084 73.276 53.5764 75.022 53.5764 72.772C53.5764 71.908 54.5664 71.44 55.3404 71.44C56.3124 71.44 56.8884 71.854 57.3024 72.61L58.2744 72.034C57.7344 70.972 56.6904 70.468 55.3404 70.468C53.9724 70.468 52.4964 71.242 52.4964 72.862C52.4964 76.03 57.4284 74.428 57.4284 76.714C57.4284 77.668 56.4564 78.244 55.5204 78.244C54.5484 78.244 53.5584 77.758 53.1084 76.876L52.1544 77.524Z" fill="white"/>
<path d="M9.45825 44.25C9.45825 38.7187 16.8333 38.7187 20.5208 35.0312C22.3645 33.1875 16.8333 33.1875 16.8333 23.9687C16.8333 17.8235 19.291 14.75 24.2083 14.75C29.1255 14.75 31.5833 17.8235 31.5833 23.9687C31.5833 33.1875 26.052 33.1875 27.8958 35.0312C31.5833 38.7187 38.9583 38.7187 38.9583 44.25" stroke="#892CDC" stroke-linecap="round"/>
<path d="M36.4868 39.931C37.8807 38.9703 39.6901 38.2787 41.4216 37.4448C42.7753 36.7928 44.0814 36.0538 45.1039 35.0312C46.9477 33.1875 41.4164 33.1875 41.4164 23.9687C41.4164 17.8235 43.8741 14.75 48.7914 14.75C53.7087 14.75 56.1664 17.8235 56.1664 23.9687C56.1664 33.1875 50.6352 33.1875 52.4789 35.0312C56.1664 38.7187 63.5414 38.7187 63.5414 44.25" stroke="#892CDC" stroke-linecap="round"/>
</svg>
